<svg width="15" height="20" viewBox="0 0 15 20" fill="none" xmlns="http://www.w3.org/2000/svg">
<g clip-path="url(#clip0_457_5684)">
<path d="M7.23999 4.73558C8.02002 4.73558 8.9978 4.19203 9.58008 3.4673C10.1074 2.81051 10.4919 1.89328 10.4919 0.97604C10.4919 0.851477 10.481 0.726915 10.459 0.625C9.59106 0.658972 8.54736 1.22517 7.92114 1.98387C7.42676 2.56139 6.97632 3.4673 6.97632 4.39586C6.97632 4.53175 6.99829 4.66763 7.00928 4.71293C7.06421 4.72425 7.1521 4.73558 7.23999 4.73558ZM4.49341 18.4375C5.55908 18.4375 6.03149 17.7014 7.36084 17.7014C8.71216 17.7014 9.00879 18.4149 10.1953 18.4149C11.3599 18.4149 12.1399 17.3051 12.876 16.218C13.7 14.9724 14.0405 13.7494 14.0625 13.6928C13.9856 13.6701 11.7554 12.7303 11.7554 10.0918C11.7554 7.80435 13.5132 6.77388 13.6121 6.69461C12.4475 4.97338 10.6787 4.92808 10.1953 4.92808C8.88794 4.92808 7.82227 5.7434 7.1521 5.7434C6.427 5.7434 5.47119 4.97338 4.3396 4.97338C2.18628 4.97338 0 6.80785 0 10.273C0 12.4245 0.812988 14.7006 1.81274 16.1727C2.66968 17.4183 3.41675 18.4375 4.49341 18.4375Z" fill="#050708"/>
</g>
<defs>
<clipPath id="clip0_457_5684">
<rect width="15" height="18.75" fill="white" transform="translate(0 0.625)"/>
</clipPath>
</defs>
</svg>
