<svg width="74" height="77" viewBox="0 0 74 77" fill="none" xmlns="http://www.w3.org/2000/svg">
<path d="M16.7829 68.6084C16.7829 68.6084 11.3683 64.02 14.5698 56.5325C17.7787 49.0524 27.1326 47.9459 36.147 47.9385C49.8974 47.9385 66.3183 52.6965 55.3637 68.601C55.3637 68.6084 41.7239 77.6819 16.7829 68.6084Z" fill="#FF9A40"/>
<path d="M30.3488 59.6456C30.2603 59.6456 30.1718 59.6161 30.1054 59.5644C30.0316 59.5128 29.98 59.439 29.9578 59.3579C28.9472 56.2227 26.1735 54.2531 26.144 54.231C26.0629 54.172 26.0039 54.0761 25.9817 53.9654C25.967 53.8621 25.9891 53.7515 26.0481 53.6629C26.1145 53.5744 26.203 53.5154 26.3137 53.4933C26.417 53.4712 26.5276 53.4933 26.6161 53.5523C28.5046 54.9539 29.9357 56.8793 30.7398 59.0997C30.7545 59.1513 30.7619 59.2103 30.7545 59.262C30.7545 59.3136 30.7324 59.3726 30.7103 59.4169C30.6881 59.4685 30.6513 59.5054 30.6144 59.5423C30.5701 59.5792 30.5258 59.6087 30.4742 59.6234C30.4299 59.6382 30.3857 59.6456 30.3488 59.6456Z" fill="#E96D17"/>
<path d="M36.1766 65.2078C36.1102 65.2078 36.0438 65.193 35.9848 65.1561C35.9184 65.1266 35.8741 65.075 35.8299 65.016C32.2447 59.3948 21.5704 57.7646 21.4672 57.7498C21.3565 57.735 21.2606 57.676 21.1942 57.5875C21.1278 57.499 21.1057 57.3883 21.1205 57.2851C21.1352 57.1744 21.1942 57.0785 21.2827 57.0121C21.3639 56.9457 21.4745 56.9162 21.5852 56.931C22.0352 56.9974 32.7316 58.635 36.5233 64.5734C36.5675 64.6324 36.5897 64.7062 36.5897 64.7799C36.5897 64.8537 36.5749 64.9275 36.538 64.9939C36.5011 65.0602 36.4495 65.1119 36.3905 65.1488C36.3241 65.1857 36.2503 65.2078 36.1766 65.2078Z" fill="#E96D17"/>
<path d="M73.1713 82.8976H0.177612C0.177612 82.8976 0.915296 73.7429 5.31926 71.9651C7.09708 71.2495 11.1838 69.2061 15.4108 67.0226C21.327 63.976 27.5456 60.6564 28.1727 60.3171L28.7849 60.4203C29.4857 60.5752 30.1865 60.708 30.8873 60.8187C31.5808 60.9367 32.2816 61.0252 32.975 61.0916C36.8404 61.4752 40.7354 61.2097 44.5123 60.2949C44.5123 60.2949 49.3073 62.7662 54.626 65.4661C55.3046 65.8054 55.9981 66.1595 56.6915 66.5062C61.3979 68.8742 66.1043 71.1905 68.0297 71.9651C72.4336 73.7429 73.1713 82.8976 73.1713 82.8976Z" fill="#FF9A40"/>
<path d="M40.0642 71.242C36.7077 71.2347 33.3955 70.497 30.3489 69.0806C28.158 68.1069 26.1441 66.7717 24.381 65.1414C24.3442 65.1119 24.322 65.0676 24.2999 65.016C24.2778 64.9717 24.2704 64.9201 24.2704 64.8685C24.2704 64.7652 24.3073 64.6693 24.381 64.5955C24.4548 64.5217 24.5507 64.4849 24.654 64.4849C24.7573 64.4849 24.8532 64.5217 24.9269 64.5955C26.6383 66.1594 28.5858 67.443 30.6956 68.3946C35.4315 70.5929 40.7871 71.0576 45.8255 69.7077C45.9288 69.6855 46.032 69.7003 46.1206 69.7519C46.2091 69.8036 46.2681 69.8847 46.2976 69.988C46.3197 70.0839 46.305 70.1945 46.2533 70.2831C46.2017 70.3716 46.1205 70.4306 46.0246 70.4601C44.0772 70.9765 42.0707 71.2347 40.0642 71.242Z" fill="#E96D17"/>
<path d="M38.1682 74.9672C36.7371 74.9598 35.3134 74.8049 33.9192 74.5099C33.8676 74.5025 33.8233 74.4803 33.779 74.4508C33.7348 74.4213 33.6979 74.3844 33.6758 74.3402C33.6462 74.3033 33.6241 74.2517 33.6167 74.2C33.6094 74.1558 33.6094 74.1041 33.6167 74.0525C33.6315 74.0009 33.6462 73.9566 33.6758 73.9123C33.7053 73.8754 33.7421 73.8386 33.7864 73.8091C33.8233 73.7795 33.8749 73.7648 33.9266 73.75C33.9708 73.7427 34.0225 73.7427 34.0741 73.75C41.6649 75.3508 46.4082 72.0017 46.4524 71.9648C46.4967 71.9353 46.5409 71.9132 46.5926 71.8985C46.6368 71.8837 46.6885 71.8837 46.7401 71.8911C46.7917 71.8985 46.8434 71.9206 46.8877 71.9427C46.9319 71.9722 46.9688 72.0091 46.9983 72.046C47.0278 72.0903 47.0499 72.1345 47.0573 72.1861C47.0721 72.2378 47.0721 72.2894 47.0647 72.3411C47.0573 72.3927 47.0352 72.437 47.0057 72.4812C46.9835 72.5255 46.9467 72.5624 46.9024 72.5919C46.7401 72.7173 43.5459 74.9672 38.1682 74.9672Z" fill="#E96D17"/>
<path d="M44.9033 62.161C44.9033 62.161 43.4722 66.6903 36.8921 66.6903C29.2202 66.6903 27.4128 62.5741 27.4128 62.5741C28.0177 60.9807 28.4972 59.343 28.8513 57.6758C29.2866 55.6693 29.4931 53.6186 29.4636 51.5678L42.9411 51.0293C43.0665 52.1801 43.2656 53.53 43.4943 54.8874C44.1066 58.502 44.9033 62.161 44.9033 62.161Z" fill="#FFB8A1"/>
<path d="M43.5017 54.8874C41.4141 56.3554 36.8478 58.5315 28.8513 57.6832C29.2939 55.6767 29.5005 53.6186 29.4636 51.5678L42.9484 51.0293C43.0738 52.1727 43.273 53.53 43.5017 54.8874Z" fill="#3F2037"/>
<path d="M25.5982 44.1393C19.9181 46.7065 13.6625 34.933 16.9009 31.547C20.1467 28.1685 24.322 33.8781 24.322 33.8781L25.5982 44.1393Z" fill="#FFB8A1"/>
<path d="M22.3302 40.6355C22.2638 40.6281 22.1975 40.606 22.1458 40.5617C22.0868 40.5175 22.0573 40.4511 22.0499 40.3847C21.4967 36.4086 18.3615 33.9742 18.332 33.9521C18.2656 33.9078 18.2287 33.8341 18.2213 33.7603C18.2066 33.6865 18.2287 33.6054 18.273 33.5464C18.3246 33.48 18.391 33.4431 18.4648 33.4357C18.5386 33.421 18.6197 33.4431 18.6787 33.4873C20.7664 35.2061 22.168 37.6258 22.6179 40.3035C22.6253 40.3773 22.6032 40.4585 22.5589 40.5175C22.5147 40.5765 22.404 40.6208 22.3302 40.6355Z" fill="#FF8A8A"/>
<path d="M21.4598 37.7806C21.4081 37.7806 21.3639 37.7658 21.3196 37.7437C21.2827 37.7216 21.2458 37.6921 21.2163 37.6552C20.8032 37.0281 19.5492 36.9691 19.0992 36.9913C19.0623 36.9986 19.0254 36.9913 18.9885 36.9839C18.9516 36.9691 18.9148 36.9544 18.8853 36.9249C18.8558 36.9027 18.8336 36.8732 18.8115 36.8363C18.7967 36.7995 18.7894 36.7626 18.782 36.7257C18.782 36.6814 18.7894 36.6445 18.8041 36.6077C18.8115 36.5708 18.8336 36.5339 18.8631 36.5118C18.8853 36.4823 18.9148 36.4601 18.9516 36.438C18.9885 36.4232 19.0254 36.4159 19.0623 36.4159C19.1434 36.4085 21.0098 36.3052 21.6958 37.3306C21.7253 37.3675 21.7401 37.4191 21.7475 37.4707C21.7475 37.5298 21.7401 37.5814 21.7106 37.6257C21.6885 37.6699 21.6516 37.7142 21.6073 37.7363C21.563 37.7658 21.5114 37.7806 21.4598 37.7806Z" fill="#FF8A8A"/>
<path d="M49.728 33.8781C49.728 33.8781 53.9033 28.1685 57.1491 31.547C60.3949 34.933 54.1319 46.7065 48.4518 44.1393L49.728 33.8781Z" fill="#FFB8A1"/>
<path d="M51.7197 40.6355C51.6828 40.6281 51.6091 40.6134 51.5722 40.5913C51.5427 40.5765 51.5132 40.547 51.491 40.5175C51.4689 40.488 51.4468 40.4511 51.4394 40.4142C51.432 40.3773 51.432 40.3405 51.432 40.3036C51.882 37.6258 53.2836 35.2062 55.3712 33.4947C55.4007 33.4652 55.4376 33.4505 55.4745 33.4357C55.5114 33.4283 55.5483 33.421 55.5852 33.4283C55.6294 33.4357 55.6663 33.4431 55.6958 33.4652C55.7327 33.48 55.7622 33.5095 55.7843 33.539C55.8065 33.5685 55.8212 33.6054 55.836 33.6423C55.8434 33.6792 55.8434 33.7234 55.8434 33.7603C55.836 33.7972 55.8212 33.8341 55.7991 33.871C55.777 33.9005 55.7548 33.93 55.7179 33.9521C55.6884 33.9742 52.5533 36.4233 52.0074 40.3847C51.9926 40.4511 51.9631 40.5175 51.9041 40.5618C51.8525 40.606 51.7861 40.6281 51.7197 40.6355Z" fill="#FF8A8A"/>
<path d="M52.5976 37.7806C52.5386 37.7806 52.4869 37.7659 52.4427 37.7364C52.3984 37.7142 52.3615 37.67 52.3394 37.6257C52.3173 37.5815 52.3025 37.5298 52.3099 37.4708C52.3099 37.4192 52.3247 37.3675 52.3542 37.3233C53.0402 36.3053 54.9065 36.4085 54.9877 36.4159C55.0615 36.4233 55.1278 36.4602 55.1795 36.5192C55.2237 36.5782 55.2459 36.652 55.2459 36.7257C55.2385 36.7995 55.209 36.8659 55.15 36.9175C55.0983 36.9692 55.0246 36.9987 54.9508 36.9987C54.5008 36.9692 53.2468 37.0356 52.8337 37.6552C52.8041 37.6921 52.7673 37.7216 52.7304 37.7437C52.6861 37.7659 52.6419 37.7806 52.5976 37.7806Z" fill="#FF8A8A"/>
<path d="M42.1592 17.6936C45.8402 18.9256 48.9606 21.4485 50.9524 24.7975C52.9441 28.154 53.6744 32.108 53.0031 35.9587C51.513 44.6339 47.3304 56.068 36.8921 55.8245C26.8744 55.5811 22.8024 45.0839 20.9434 36.7628C18.3099 24.9746 28.8735 14.3593 40.5437 17.2289C41.0969 17.3617 41.6354 17.5166 42.1592 17.6936Z" fill="#FFB8A1"/>
<path d="M37.7256 43.9475C37.1576 43.9327 36.6043 43.8 36.088 43.5565C36.0068 43.5196 35.9404 43.4606 35.8962 43.3795C35.8519 43.2983 35.8298 43.2098 35.8445 43.1213L36.6781 36.6739C36.6855 36.6149 36.7002 36.5633 36.7297 36.519C36.7519 36.4748 36.7887 36.4305 36.833 36.3936C36.8773 36.3641 36.9289 36.342 36.9805 36.3272C37.0322 36.3125 37.0838 36.3051 37.1355 36.3125C37.1945 36.3198 37.2461 36.342 37.2904 36.3641C37.3346 36.3936 37.3789 36.4305 37.4084 36.4748C37.4453 36.519 37.4674 36.5633 37.4822 36.6149C37.4969 36.6739 37.4969 36.7256 37.4895 36.7772L36.7002 42.9074C37.0101 43.0623 37.3494 43.136 37.6961 43.1213C38.0428 43.1139 38.3748 43.0106 38.6698 42.8336C38.7141 42.8041 38.7657 42.782 38.8174 42.7672C38.8764 42.7598 38.928 42.7598 38.9797 42.7672C39.0313 42.7746 39.0829 42.7967 39.1272 42.8262C39.1788 42.8557 39.2157 42.9 39.2452 42.9442C39.2747 42.9885 39.2969 43.0401 39.3042 43.0918C39.319 43.1434 39.319 43.2024 39.3042 43.2541C39.2969 43.3057 39.2747 43.3573 39.2452 43.4016C39.2157 43.4459 39.1788 43.4901 39.1346 43.5196C38.7141 43.8 38.2272 43.9549 37.7256 43.9475Z" fill="#FF8A8A"/>
<path d="M36.9659 48.1969C35.5126 48.1895 34.0889 47.8502 32.7906 47.201C32.6947 47.1494 32.6283 47.0609 32.5988 46.9502C32.5693 46.8469 32.584 46.7363 32.6357 46.6404C32.6873 46.5445 32.7758 46.4781 32.8791 46.4486C32.9824 46.4117 33.093 46.4264 33.1889 46.4781C33.3881 46.5887 37.947 49.06 41.8862 45.3863C41.9231 45.3494 41.9673 45.3273 42.019 45.3052C42.0706 45.283 42.1296 45.2757 42.1813 45.283C42.2329 45.283 42.2846 45.2978 42.3362 45.3199C42.3878 45.3421 42.4321 45.3716 42.469 45.4158C42.5059 45.4527 42.528 45.497 42.5501 45.5486C42.5722 45.6002 42.5796 45.6519 42.5722 45.7109C42.5722 45.7625 42.5575 45.8142 42.5354 45.8658C42.5132 45.9174 42.4837 45.9617 42.4468 45.9986C40.9715 47.4149 39.0019 48.2043 36.9659 48.1969Z" fill="#FF8A8A"/>
<path d="M37.6298 50.5645C37.047 50.5571 36.4642 50.4759 35.9036 50.3137C35.8003 50.2841 35.7118 50.2104 35.6602 50.1145C35.6085 50.0186 35.6012 49.9005 35.6307 49.7973C35.6675 49.694 35.7339 49.6055 35.8298 49.5538C35.9331 49.5022 36.0438 49.4948 36.147 49.5243C36.1618 49.5317 37.9912 50.085 39.2748 49.3547C39.3707 49.303 39.4814 49.2883 39.5846 49.3178C39.6879 49.3473 39.7764 49.4137 39.8355 49.5096C39.8871 49.6055 39.9018 49.7235 39.8723 49.8268C39.8428 49.9301 39.7691 50.026 39.6805 50.0776C39.0461 50.4096 38.3453 50.5792 37.6298 50.5645Z" fill="#FF8A8A"/>
<path d="M28.9473 32.1815C28.8071 32.2552 28.6596 32.2921 28.4973 32.3069C28.3424 32.3143 28.1874 32.2848 28.0399 32.2257C27.8924 32.1667 27.767 32.0782 27.6563 31.9602C27.553 31.8421 27.4719 31.702 27.4203 31.5544C27.3612 31.3626 27.3539 31.1635 27.4055 30.9717C27.4498 30.7873 27.5457 30.6102 27.6858 30.4701C28.9768 29.1717 30.9685 28.7734 32.0898 28.6553C32.3258 28.6332 32.5693 28.6849 32.7685 28.8176C32.975 28.943 33.1225 29.1348 33.2037 29.3635L33.2553 29.4963C33.307 29.6438 33.3217 29.8061 33.307 29.9684C33.2922 30.1233 33.2406 30.2783 33.1594 30.4184C33.0709 30.5512 32.9603 30.6692 32.8275 30.7577C32.6947 30.8463 32.5398 30.9053 32.3849 30.92C31.1751 31.1487 30.0169 31.5692 28.9473 32.1815Z" fill="#3F2037"/>
<path d="M45.9657 32.1815C44.8961 31.5692 43.7379 31.1487 42.5281 30.92C42.3732 30.9053 42.2183 30.8463 42.0855 30.7577C41.9527 30.6692 41.8421 30.5512 41.7609 30.4184C41.6724 30.2783 41.6208 30.1233 41.606 29.9684C41.5913 29.8061 41.606 29.6438 41.6576 29.4963L41.7093 29.3635C41.7904 29.1348 41.938 28.943 42.1445 28.8176C42.3437 28.6849 42.5871 28.6332 42.8232 28.6553C43.9445 28.7734 45.9362 29.1717 47.2272 30.4701C47.3673 30.6102 47.4632 30.7873 47.5075 30.9717C47.5591 31.1635 47.5517 31.3626 47.4853 31.5544C47.4411 31.702 47.3599 31.8421 47.2567 31.9602C47.146 32.0708 47.0206 32.1667 46.8731 32.2257C46.7255 32.2848 46.5706 32.3143 46.4157 32.3069C46.2534 32.2921 46.1059 32.2552 45.9657 32.1815Z" fill="#3F2037"/>
<g opacity="0.5">
<g opacity="0.5">
<g opacity="0.5">
<path d="M31.9644 39.6176C31.9644 40.6356 30.098 41.4544 27.8038 41.4544C25.5023 41.4544 23.6433 40.6356 23.6433 39.6176C23.6433 38.5996 25.5023 37.7808 27.8038 37.7808C30.098 37.7808 31.9644 38.5996 31.9644 39.6176Z" fill="#FF8A8A"/>
</g>
</g>
</g>
<g opacity="0.5">
<g opacity="0.5">
<g opacity="0.5">
<path d="M51.5278 39.6176C51.5278 40.6356 49.6615 41.4544 47.3673 41.4544C45.0731 41.4544 43.2068 40.6356 43.2068 39.6176C43.2068 38.5996 45.0731 37.7808 47.3673 37.7808C49.6615 37.7808 51.5278 38.5996 51.5278 39.6176Z" fill="#FF8A8A"/>
</g>
</g>
</g>
<path d="M21.3787 38.5773C21.3787 38.5773 19.1877 26.4276 19.8664 23.6539C20.5451 20.8729 21.9541 21.3819 21.9541 21.3819C21.9541 21.3819 10.1364 11.637 16.0157 6.11179C20.2721 2.10617 25.163 10.6707 25.163 10.6707C25.163 10.6707 22.7434 2.25371 26.1884 1.09554C30.4817 -0.342942 32.4291 9.7412 32.4291 9.7412C32.4291 9.7412 32.0751 2.21682 35.5643 2.36436C40.4035 2.57091 37.6741 8.19944 42.9264 10.3904C48.1713 12.5887 56.1014 13.7026 53.2466 22.5548C53.2466 22.5548 57.0973 22.3851 52.3023 38.1716C51.0704 36.4454 50.4507 34.343 50.5466 32.2111C50.6278 30.5808 50.6204 28.6849 50.2884 27.5268C50.2884 27.5268 47.2861 25.417 47.4262 22.3261C47.4262 22.3261 36.8552 28.6407 27.1105 23.0121C27.1105 23.0121 27.7227 26.6489 24.654 27.2022C23.9532 29.039 23.5032 30.9644 23.3261 32.9266C23.1417 34.8815 22.5073 36.7626 21.4746 38.4224L21.3787 38.5773Z" fill="#3F2037"/>
<path d="M52.2656 16.9999C52.2656 16.9999 53.9328 11.2681 56.6327 12.7361C58.5581 13.7836 54.073 18.1433 54.073 18.1433C54.073 18.1433 57.8499 16.0926 59.7089 17.5384C61.5678 18.9843 56.6327 20.6957 53.7853 20.2089C50.9378 19.7146 52.2656 16.9999 52.2656 16.9999Z" fill="#3F2037"/>
<path d="M32.2521 35.3386C32.2668 36.4599 31.8611 37.3746 31.3299 37.382C30.8062 37.3968 30.3636 36.4894 30.3415 35.3681C30.3267 34.2469 30.7324 33.3321 31.2636 33.3248C31.7873 33.3174 32.2299 34.2173 32.2521 35.3386Z" fill="#3F2037"/>
<path d="M43.1921 33.3252C43.7233 33.3326 44.129 34.2473 44.1142 35.3686C44.0921 36.4899 43.6495 37.3973 43.1257 37.3825C42.5946 37.3751 42.1889 36.4604 42.2036 35.3391C42.2258 34.2178 42.6684 33.3179 43.1921 33.3252Z" fill="#3F2037"/>
<path d="M26.0039 71.3819V82.9045H25.1851V71.3819C25.1851 71.2712 25.2293 71.1679 25.3031 71.0868C25.3842 71.013 25.4875 70.9688 25.5908 70.9688C25.7014 70.9688 25.8047 71.013 25.8859 71.0868C25.9596 71.1679 26.0039 71.2712 26.0039 71.3819Z" fill="white"/>
<path d="M48.8648 71.3823V82.9049H48.046V71.3823C48.046 71.2864 48.0829 71.1905 48.1419 71.1167C48.2083 71.043 48.2968 70.9987 48.3927 70.9839C48.4886 70.9692 48.5845 70.9839 48.6657 71.0356C48.7468 71.0872 48.8132 71.161 48.8427 71.2495C48.8575 71.2938 48.8648 71.338 48.8648 71.3823Z" fill="white"/>
</svg>
