<svg width="26" height="27" viewBox="0 0 26 27" fill="none" xmlns="http://www.w3.org/2000/svg">
<path d="M6.55952 16.0527C6.68452 16.5907 6.99433 17.0687 7.43573 17.4045C7.87713 17.7402 8.42258 17.9128 8.97828 17.8927H21.4504C22.0056 17.9127 22.5504 17.7399 22.991 17.404C23.4317 17.0682 23.7408 16.5903 23.8649 16.0527L24.9525 8.63649C25.026 8.25925 25.014 7.87048 24.9176 7.49835C24.8212 7.12623 24.6426 6.78004 24.3949 6.48486C24.1471 6.18968 23.8364 5.95288 23.4851 5.79162C23.1339 5.63037 22.751 5.54877 22.364 5.55257H4.90205M6.55952 16.0527L4.90205 5.55257M6.55952 16.0527C6.55952 16.0527 7.07289 21.6418 12.6934 21.875H22.7599M4.90205 5.55257L4.41477 2.47284C4.33768 2.05988 4.11772 1.68664 3.79282 1.41769C3.46793 1.14874 3.05859 1.00102 2.63559 1H1M11.658 23.9354C11.658 25.0756 10.727 26 9.57861 26C8.43018 26 7.49919 25.0756 7.49919 23.9354C7.49919 22.7951 8.43018 21.8708 9.57861 21.8708C10.727 21.8708 11.658 22.7951 11.658 23.9354ZM24.8393 23.9354C24.8393 25.0756 23.9083 26 22.7599 26C21.6114 26 20.6804 25.0756 20.6804 23.9354C20.6804 22.7951 21.6114 21.8708 22.7599 21.8708C23.9083 21.8708 24.8393 22.7951 24.8393 23.9354Z" stroke="#DBF4D1" stroke-width="2" stroke-linecap="round" stroke-linejoin="round"/>
</svg>
