<svg width="430" height="88" viewBox="0 0 430 88" fill="none" xmlns="http://www.w3.org/2000/svg">
<path d="M112.057 17.875H107.08C106.989 17.2311 106.803 16.6591 106.523 16.1591C106.242 15.6515 105.883 15.2197 105.443 14.8636C105.004 14.5076 104.496 14.2348 103.92 14.0455C103.352 13.8561 102.735 13.7614 102.068 13.7614C100.864 13.7614 99.8144 14.0606 98.9205 14.6591C98.0265 15.25 97.3333 16.1136 96.8409 17.25C96.3485 18.3788 96.1023 19.75 96.1023 21.3636C96.1023 23.0227 96.3485 24.4167 96.8409 25.5455C97.3409 26.6742 98.0379 27.5265 98.9318 28.1023C99.8258 28.678 100.86 28.9659 102.034 28.9659C102.693 28.9659 103.303 28.8788 103.864 28.7045C104.432 28.5303 104.936 28.2765 105.375 27.9432C105.814 27.6023 106.178 27.1894 106.466 26.7045C106.761 26.2197 106.966 25.6667 107.08 25.0455L112.057 25.0682C111.928 26.1364 111.606 27.1667 111.091 28.1591C110.583 29.1439 109.898 30.0265 109.034 30.8068C108.178 31.5795 107.155 32.1932 105.966 32.6477C104.784 33.0947 103.447 33.3182 101.955 33.3182C99.8788 33.3182 98.0227 32.8485 96.3864 31.9091C94.7576 30.9697 93.4697 29.6098 92.5227 27.8295C91.5833 26.0492 91.1136 23.8939 91.1136 21.3636C91.1136 18.8258 91.5909 16.6667 92.5455 14.8864C93.5 13.1061 94.7955 11.75 96.4318 10.8182C98.0682 9.87879 99.9091 9.40909 101.955 9.40909C103.303 9.40909 104.553 9.59848 105.705 9.97727C106.864 10.3561 107.89 10.9091 108.784 11.6364C109.678 12.3561 110.405 13.2386 110.966 14.2841C111.534 15.3295 111.898 16.5265 112.057 17.875ZM122.741 33.3409C120.976 33.3409 119.449 32.9659 118.161 32.2159C116.881 31.4583 115.892 30.4053 115.195 29.0568C114.498 27.7008 114.15 26.1288 114.15 24.3409C114.15 22.5379 114.498 20.9621 115.195 19.6136C115.892 18.2576 116.881 17.2045 118.161 16.4545C119.449 15.697 120.976 15.3182 122.741 15.3182C124.506 15.3182 126.029 15.697 127.309 16.4545C128.597 17.2045 129.589 18.2576 130.286 19.6136C130.983 20.9621 131.332 22.5379 131.332 24.3409C131.332 26.1288 130.983 27.7008 130.286 29.0568C129.589 30.4053 128.597 31.4583 127.309 32.2159C126.029 32.9659 124.506 33.3409 122.741 33.3409ZM122.763 29.5909C123.566 29.5909 124.237 29.3636 124.775 28.9091C125.313 28.447 125.718 27.8182 125.991 27.0227C126.271 26.2273 126.411 25.322 126.411 24.3068C126.411 23.2917 126.271 22.3864 125.991 21.5909C125.718 20.7955 125.313 20.1667 124.775 19.7045C124.237 19.2424 123.566 19.0114 122.763 19.0114C121.953 19.0114 121.271 19.2424 120.718 19.7045C120.173 20.1667 119.76 20.7955 119.479 21.5909C119.207 22.3864 119.07 23.2917 119.07 24.3068C119.07 25.322 119.207 26.2273 119.479 27.0227C119.76 27.8182 120.173 28.447 120.718 28.9091C121.271 29.3636 121.953 29.5909 122.763 29.5909ZM138.68 22.9091V33H133.839V15.5455H138.453V18.625H138.658C139.044 17.6098 139.692 16.8068 140.601 16.2159C141.51 15.6174 142.612 15.3182 143.908 15.3182C145.12 15.3182 146.176 15.5833 147.078 16.1136C147.979 16.6439 148.68 17.4015 149.18 18.3864C149.68 19.3636 149.93 20.5303 149.93 21.8864V33H145.089V22.75C145.097 21.6818 144.824 20.8485 144.271 20.25C143.718 19.6439 142.957 19.3409 141.987 19.3409C141.336 19.3409 140.76 19.4811 140.26 19.7614C139.767 20.0417 139.381 20.4508 139.101 20.9886C138.828 21.5189 138.688 22.1591 138.68 22.9091ZM160.969 39.9091C159.401 39.9091 158.056 39.6932 156.935 39.2614C155.821 38.8371 154.935 38.2576 154.276 37.5227C153.617 36.7879 153.189 35.9621 152.992 35.0455L157.469 34.4432C157.606 34.7917 157.821 35.1174 158.117 35.4205C158.412 35.7235 158.803 35.9659 159.287 36.1477C159.78 36.3371 160.378 36.4318 161.083 36.4318C162.136 36.4318 163.003 36.1742 163.685 35.6591C164.375 35.1515 164.719 34.2992 164.719 33.1023V29.9091H164.515C164.303 30.3939 163.984 30.8523 163.56 31.2841C163.136 31.7159 162.59 32.0682 161.924 32.3409C161.257 32.6136 160.462 32.75 159.537 32.75C158.227 32.75 157.034 32.447 155.958 31.8409C154.89 31.2273 154.037 30.2917 153.401 29.0341C152.772 27.7689 152.458 26.1705 152.458 24.2386C152.458 22.2614 152.78 20.6098 153.424 19.2841C154.068 17.9583 154.924 16.9659 155.992 16.3068C157.068 15.6477 158.246 15.3182 159.526 15.3182C160.503 15.3182 161.321 15.4848 161.981 15.8182C162.64 16.1439 163.17 16.553 163.571 17.0455C163.981 17.5303 164.295 18.0076 164.515 18.4773H164.696V15.5455H169.503V33.1705C169.503 34.6553 169.14 35.8977 168.412 36.8977C167.685 37.8977 166.678 38.6477 165.39 39.1477C164.109 39.6553 162.636 39.9091 160.969 39.9091ZM161.071 29.1136C161.852 29.1136 162.511 28.9205 163.049 28.5341C163.594 28.1402 164.011 27.5795 164.299 26.8523C164.594 26.1174 164.742 25.2386 164.742 24.2159C164.742 23.1932 164.598 22.3068 164.31 21.5568C164.022 20.7992 163.606 20.2121 163.06 19.7955C162.515 19.3788 161.852 19.1705 161.071 19.1705C160.276 19.1705 159.606 19.3864 159.06 19.8182C158.515 20.2424 158.102 20.8333 157.821 21.5909C157.541 22.3485 157.401 23.2235 157.401 24.2159C157.401 25.2235 157.541 26.0947 157.821 26.8295C158.109 27.5568 158.522 28.1212 159.06 28.5227C159.606 28.9167 160.276 29.1136 161.071 29.1136ZM172.716 33V15.5455H177.409V18.5909H177.591C177.909 17.5076 178.443 16.6894 179.193 16.1364C179.943 15.5758 180.806 15.2955 181.784 15.2955C182.026 15.2955 182.288 15.3106 182.568 15.3409C182.848 15.3712 183.094 15.4129 183.306 15.4659V19.7614C183.079 19.6932 182.765 19.6326 182.363 19.5795C181.962 19.5265 181.594 19.5 181.261 19.5C180.549 19.5 179.913 19.6553 179.352 19.9659C178.799 20.2689 178.36 20.6932 178.034 21.2386C177.716 21.7841 177.556 22.4129 177.556 23.125V33H172.716ZM189.647 33.3295C188.533 33.3295 187.541 33.1364 186.669 32.75C185.798 32.3561 185.109 31.7765 184.601 31.0114C184.101 30.2386 183.851 29.2765 183.851 28.125C183.851 27.1553 184.029 26.3409 184.385 25.6818C184.741 25.0227 185.226 24.4924 185.84 24.0909C186.453 23.6894 187.15 23.3864 187.931 23.1818C188.719 22.9773 189.544 22.8333 190.408 22.75C191.423 22.6439 192.241 22.5455 192.863 22.4545C193.484 22.3561 193.934 22.2121 194.215 22.0227C194.495 21.8333 194.635 21.553 194.635 21.1818V21.1136C194.635 20.3939 194.408 19.8371 193.953 19.4432C193.506 19.0492 192.87 18.8523 192.044 18.8523C191.173 18.8523 190.48 19.0455 189.965 19.4318C189.45 19.8106 189.109 20.2879 188.942 20.8636L184.465 20.5C184.692 19.4394 185.139 18.5227 185.806 17.75C186.472 16.9697 187.332 16.3712 188.385 15.9545C189.446 15.5303 190.673 15.3182 192.067 15.3182C193.037 15.3182 193.965 15.4318 194.851 15.6591C195.745 15.8864 196.537 16.2386 197.226 16.7159C197.923 17.1932 198.472 17.8068 198.874 18.5568C199.275 19.2992 199.476 20.1894 199.476 21.2273V33H194.885V30.5795H194.749C194.469 31.125 194.094 31.6061 193.624 32.0227C193.154 32.4318 192.59 32.7538 191.931 32.9886C191.272 33.2159 190.51 33.3295 189.647 33.3295ZM191.033 29.9886C191.745 29.9886 192.374 29.8485 192.919 29.5682C193.465 29.2803 193.893 28.8939 194.203 28.4091C194.514 27.9242 194.669 27.375 194.669 26.7614V24.9091C194.518 25.0076 194.309 25.0985 194.044 25.1818C193.787 25.2576 193.495 25.3295 193.169 25.3977C192.844 25.4583 192.518 25.5152 192.192 25.5682C191.866 25.6136 191.571 25.6553 191.306 25.6932C190.738 25.7765 190.241 25.9091 189.817 26.0909C189.393 26.2727 189.063 26.5189 188.828 26.8295C188.594 27.1326 188.476 27.5114 188.476 27.9659C188.476 28.625 188.715 29.1288 189.192 29.4773C189.677 29.8182 190.291 29.9886 191.033 29.9886ZM211.876 15.5455V19.1818H201.365V15.5455H211.876ZM203.751 11.3636H208.592V27.6364C208.592 28.0833 208.66 28.4318 208.796 28.6818C208.933 28.9242 209.122 29.0947 209.365 29.1932C209.615 29.2917 209.902 29.3409 210.228 29.3409C210.455 29.3409 210.683 29.322 210.91 29.2841C211.137 29.2386 211.312 29.2045 211.433 29.1818L212.194 32.7841C211.952 32.8598 211.611 32.947 211.171 33.0455C210.732 33.1515 210.198 33.2159 209.569 33.2386C208.402 33.2841 207.38 33.1288 206.501 32.7727C205.63 32.4167 204.952 31.8636 204.467 31.1136C203.982 30.3636 203.743 29.4167 203.751 28.2727V11.3636ZM225.582 25.5682V15.5455H230.423V33H225.776V29.8295H225.594C225.2 30.8523 224.545 31.6742 223.628 32.2955C222.719 32.9167 221.609 33.2273 220.298 33.2273C219.132 33.2273 218.105 32.9621 217.219 32.4318C216.332 31.9015 215.639 31.1477 215.139 30.1705C214.647 29.1932 214.397 28.0227 214.389 26.6591V15.5455H219.23V25.7955C219.238 26.8258 219.514 27.6402 220.06 28.2386C220.605 28.8371 221.336 29.1364 222.253 29.1364C222.836 29.1364 223.382 29.0038 223.889 28.7386C224.397 28.4659 224.806 28.0644 225.117 27.5341C225.435 27.0038 225.59 26.3485 225.582 25.5682ZM238.496 9.72727V33H233.656V9.72727H238.496ZM246.712 33.3295C245.598 33.3295 244.606 33.1364 243.734 32.75C242.863 32.3561 242.174 31.7765 241.666 31.0114C241.166 30.2386 240.916 29.2765 240.916 28.125C240.916 27.1553 241.094 26.3409 241.45 25.6818C241.806 25.0227 242.291 24.4924 242.905 24.0909C243.518 23.6894 244.215 23.3864 244.996 23.1818C245.784 22.9773 246.609 22.8333 247.473 22.75C248.488 22.6439 249.306 22.5455 249.928 22.4545C250.549 22.3561 250.999 22.2121 251.28 22.0227C251.56 21.8333 251.7 21.553 251.7 21.1818V21.1136C251.7 20.3939 251.473 19.8371 251.018 19.4432C250.571 19.0492 249.935 18.8523 249.109 18.8523C248.238 18.8523 247.545 19.0455 247.03 19.4318C246.515 19.8106 246.174 20.2879 246.007 20.8636L241.53 20.5C241.757 19.4394 242.204 18.5227 242.871 17.75C243.537 16.9697 244.397 16.3712 245.45 15.9545C246.511 15.5303 247.738 15.3182 249.132 15.3182C250.102 15.3182 251.03 15.4318 251.916 15.6591C252.81 15.8864 253.602 16.2386 254.291 16.7159C254.988 17.1932 255.537 17.8068 255.939 18.5568C256.34 19.2992 256.541 20.1894 256.541 21.2273V33H251.95V30.5795H251.814C251.534 31.125 251.159 31.6061 250.689 32.0227C250.219 32.4318 249.655 32.7538 248.996 32.9886C248.337 33.2159 247.575 33.3295 246.712 33.3295ZM248.098 29.9886C248.81 29.9886 249.439 29.8485 249.984 29.5682C250.53 29.2803 250.958 28.8939 251.268 28.4091C251.579 27.9242 251.734 27.375 251.734 26.7614V24.9091C251.583 25.0076 251.374 25.0985 251.109 25.1818C250.852 25.2576 250.56 25.3295 250.234 25.3977C249.909 25.4583 249.583 25.5152 249.257 25.5682C248.931 25.6136 248.636 25.6553 248.371 25.6932C247.803 25.7765 247.306 25.9091 246.882 26.0909C246.458 26.2727 246.128 26.5189 245.893 26.8295C245.659 27.1326 245.541 27.5114 245.541 27.9659C245.541 28.625 245.78 29.1288 246.257 29.4773C246.742 29.8182 247.356 29.9886 248.098 29.9886ZM268.941 15.5455V19.1818H258.43V15.5455H268.941ZM260.816 11.3636H265.657V27.6364C265.657 28.0833 265.725 28.4318 265.861 28.6818C265.998 28.9242 266.187 29.0947 266.43 29.1932C266.68 29.2917 266.967 29.3409 267.293 29.3409C267.52 29.3409 267.748 29.322 267.975 29.2841C268.202 29.2386 268.377 29.2045 268.498 29.1818L269.259 32.7841C269.017 32.8598 268.676 32.947 268.236 33.0455C267.797 33.1515 267.263 33.2159 266.634 33.2386C265.467 33.2841 264.445 33.1288 263.566 32.7727C262.695 32.4167 262.017 31.8636 261.532 31.1136C261.047 30.3636 260.808 29.4167 260.816 28.2727V11.3636ZM271.454 33V15.5455H276.295V33H271.454ZM273.886 13.2955C273.166 13.2955 272.549 13.0568 272.034 12.5795C271.526 12.0947 271.273 11.5152 271.273 10.8409C271.273 10.1742 271.526 9.60227 272.034 9.125C272.549 8.64015 273.166 8.39773 273.886 8.39773C274.606 8.39773 275.219 8.64015 275.727 9.125C276.242 9.60227 276.5 10.1742 276.5 10.8409C276.5 11.5152 276.242 12.0947 275.727 12.5795C275.219 13.0568 274.606 13.2955 273.886 13.2955ZM287.419 33.3409C285.654 33.3409 284.128 32.9659 282.84 32.2159C281.56 31.4583 280.571 30.4053 279.874 29.0568C279.177 27.7008 278.829 26.1288 278.829 24.3409C278.829 22.5379 279.177 20.9621 279.874 19.6136C280.571 18.2576 281.56 17.2045 282.84 16.4545C284.128 15.697 285.654 15.3182 287.419 15.3182C289.185 15.3182 290.707 15.697 291.988 16.4545C293.275 17.2045 294.268 18.2576 294.965 19.6136C295.662 20.9621 296.01 22.5379 296.01 24.3409C296.01 26.1288 295.662 27.7008 294.965 29.0568C294.268 30.4053 293.275 31.4583 291.988 32.2159C290.707 32.9659 289.185 33.3409 287.419 33.3409ZM287.442 29.5909C288.245 29.5909 288.916 29.3636 289.454 28.9091C289.991 28.447 290.397 27.8182 290.669 27.0227C290.95 26.2273 291.09 25.322 291.09 24.3068C291.09 23.2917 290.95 22.3864 290.669 21.5909C290.397 20.7955 289.991 20.1667 289.454 19.7045C288.916 19.2424 288.245 19.0114 287.442 19.0114C286.632 19.0114 285.95 19.2424 285.397 19.7045C284.851 20.1667 284.438 20.7955 284.158 21.5909C283.885 22.3864 283.749 23.2917 283.749 24.3068C283.749 25.322 283.885 26.2273 284.158 27.0227C284.438 27.8182 284.851 28.447 285.397 28.9091C285.95 29.3636 286.632 29.5909 287.442 29.5909ZM303.359 22.9091V33H298.518V15.5455H303.132V18.625H303.336C303.723 17.6098 304.37 16.8068 305.279 16.2159C306.189 15.6174 307.291 15.3182 308.586 15.3182C309.798 15.3182 310.855 15.5833 311.757 16.1136C312.658 16.6439 313.359 17.4015 313.859 18.3864C314.359 19.3636 314.609 20.5303 314.609 21.8864V33H309.768V22.75C309.776 21.6818 309.503 20.8485 308.95 20.25C308.397 19.6439 307.635 19.3409 306.666 19.3409C306.014 19.3409 305.439 19.4811 304.939 19.7614C304.446 20.0417 304.06 20.4508 303.779 20.9886C303.507 21.5189 303.367 22.1591 303.359 22.9091ZM332.307 20.5227L327.875 20.7955C327.799 20.4167 327.637 20.0758 327.387 19.7727C327.137 19.4621 326.807 19.2159 326.398 19.0341C325.996 18.8447 325.515 18.75 324.955 18.75C324.205 18.75 323.572 18.9091 323.057 19.2273C322.542 19.5379 322.284 19.9545 322.284 20.4773C322.284 20.8939 322.451 21.2462 322.784 21.5341C323.118 21.822 323.69 22.053 324.5 22.2273L327.659 22.8636C329.356 23.2121 330.621 23.7727 331.455 24.5455C332.288 25.3182 332.705 26.3333 332.705 27.5909C332.705 28.7348 332.368 29.7386 331.693 30.6023C331.027 31.4659 330.11 32.1402 328.943 32.625C327.784 33.1023 326.447 33.3409 324.932 33.3409C322.621 33.3409 320.781 32.8598 319.409 31.8977C318.046 30.928 317.246 29.6098 317.012 27.9432L321.773 27.6932C321.917 28.3977 322.265 28.9356 322.818 29.3068C323.371 29.6705 324.08 29.8523 324.943 29.8523C325.792 29.8523 326.474 29.6894 326.989 29.3636C327.512 29.0303 327.777 28.6023 327.784 28.0795C327.777 27.6402 327.591 27.2803 327.227 27C326.864 26.7121 326.303 26.4924 325.546 26.3409L322.523 25.7386C320.818 25.3977 319.549 24.8068 318.716 23.9659C317.89 23.125 317.477 22.053 317.477 20.75C317.477 19.6288 317.781 18.6629 318.387 17.8523C319 17.0417 319.86 16.4167 320.966 15.9773C322.08 15.5379 323.383 15.3182 324.875 15.3182C327.08 15.3182 328.815 15.7841 330.08 16.7159C331.352 17.6477 332.095 18.9167 332.307 20.5227ZM340.897 9.72727L340.454 26.0227H336.295L335.84 9.72727H340.897ZM338.374 33.2955C337.624 33.2955 336.98 33.0303 336.443 32.5C335.905 31.9621 335.64 31.3182 335.647 30.5682C335.64 29.8258 335.905 29.1894 336.443 28.6591C336.98 28.1288 337.624 27.8636 338.374 27.8636C339.094 27.8636 339.727 28.1288 340.272 28.6591C340.818 29.1894 341.094 29.8258 341.102 30.5682C341.094 31.0682 340.962 31.5265 340.704 31.9432C340.454 32.3523 340.124 32.6818 339.715 32.9318C339.306 33.1742 338.859 33.2955 338.374 33.2955Z" fill="white"/>
<path d="M70.3615 84.9091V66.9091H72.3047V68.9886H72.5434C72.6911 68.7614 72.8956 68.4716 73.157 68.1193C73.424 67.7614 73.8047 67.4432 74.299 67.1648C74.799 66.8807 75.4752 66.7386 76.3274 66.7386C77.4297 66.7386 78.4013 67.0142 79.2422 67.5653C80.0831 68.1165 80.7394 68.8977 81.211 69.9091C81.6826 70.9205 81.9184 72.1136 81.9184 73.4886C81.9184 74.875 81.6826 76.0767 81.211 77.0938C80.7394 78.1051 80.086 78.8892 79.2507 79.446C78.4155 79.9972 77.4524 80.2727 76.3615 80.2727C75.5206 80.2727 74.8473 80.1335 74.3417 79.8551C73.836 79.571 73.4468 79.25 73.174 78.892C72.9013 78.5284 72.6911 78.2273 72.5434 77.9886H72.3729V84.9091H70.3615ZM72.3388 73.4545C72.3388 74.4432 72.4837 75.3153 72.7735 76.071C73.0632 76.821 73.4865 77.4091 74.0434 77.8352C74.6002 78.2557 75.282 78.4659 76.0888 78.4659C76.9297 78.4659 77.6314 78.2443 78.1939 77.8011C78.7621 77.3523 79.1882 76.75 79.4723 75.9943C79.7621 75.233 79.907 74.3864 79.907 73.4545C79.907 72.5341 79.7649 71.7045 79.4809 70.9659C79.2024 70.2216 78.7792 69.6335 78.211 69.2017C77.6485 68.7642 76.9411 68.5455 76.0888 68.5455C75.2706 68.5455 74.5831 68.7528 74.0263 69.1676C73.4695 69.5767 73.049 70.1506 72.7649 70.8892C72.4809 71.6222 72.3388 72.4773 72.3388 73.4545ZM88.5988 80.3068C87.7693 80.3068 87.0164 80.1506 86.3403 79.8381C85.6642 79.5199 85.1272 79.0625 84.7295 78.4659C84.3318 77.8636 84.1329 77.1364 84.1329 76.2841C84.1329 75.5341 84.2806 74.9261 84.5761 74.4602C84.8715 73.9886 85.2664 73.6193 85.7607 73.3523C86.2551 73.0852 86.8005 72.8864 87.3971 72.7557C87.9994 72.6193 88.6045 72.5114 89.2125 72.4318C90.0079 72.3295 90.6528 72.2528 91.1471 72.2017C91.6471 72.1449 92.0107 72.0511 92.238 71.9205C92.471 71.7898 92.5875 71.5625 92.5875 71.2386V71.1705C92.5875 70.3295 92.3573 69.6761 91.8971 69.2102C91.4426 68.7443 90.7522 68.5114 89.8261 68.5114C88.8659 68.5114 88.113 68.7216 87.5676 69.142C87.0221 69.5625 86.6386 70.0114 86.417 70.4886L84.5079 69.8068C84.8488 69.0114 85.3034 68.392 85.8715 67.9489C86.4454 67.5 87.0704 67.1875 87.7465 67.0114C88.4284 66.8295 89.0988 66.7386 89.7579 66.7386C90.1784 66.7386 90.6613 66.7898 91.2068 66.892C91.7579 66.9886 92.2892 67.1903 92.8005 67.4972C93.3176 67.804 93.7465 68.267 94.0875 68.8864C94.4284 69.5057 94.5988 70.3352 94.5988 71.375V80H92.5875V78.2273H92.4852C92.3488 78.5114 92.1215 78.8153 91.8034 79.1392C91.4852 79.4631 91.0619 79.7386 90.5335 79.9659C90.0051 80.1932 89.3602 80.3068 88.5988 80.3068ZM88.9056 78.5C89.7011 78.5 90.3715 78.3438 90.917 78.0312C91.4681 77.7188 91.8829 77.3153 92.1613 76.821C92.4454 76.3267 92.5875 75.8068 92.5875 75.2614V73.4205C92.5022 73.5227 92.3147 73.6165 92.025 73.7017C91.7409 73.7812 91.4113 73.8523 91.0363 73.9148C90.667 73.9716 90.3062 74.0227 89.9539 74.0682C89.6073 74.108 89.3261 74.142 89.1102 74.1705C88.5875 74.2386 88.0988 74.3494 87.6443 74.5028C87.1954 74.6506 86.8318 74.875 86.5534 75.1761C86.2806 75.4716 86.1443 75.875 86.1443 76.3864C86.1443 77.0852 86.4028 77.6136 86.9198 77.9716C87.4426 78.3239 88.1045 78.5 88.9056 78.5ZM107.303 69.8409L105.496 70.3523C105.382 70.0511 105.215 69.7585 104.993 69.4744C104.777 69.1847 104.482 68.946 104.107 68.7585C103.732 68.571 103.252 68.4773 102.666 68.4773C101.865 68.4773 101.198 68.6619 100.664 69.0312C100.135 69.3949 99.8709 69.858 99.8709 70.4205C99.8709 70.9205 100.053 71.3153 100.416 71.6051C100.78 71.8949 101.348 72.1364 102.121 72.3295L104.064 72.8068C105.235 73.0909 106.107 73.5256 106.681 74.1108C107.254 74.6903 107.541 75.4375 107.541 76.3523C107.541 77.1023 107.325 77.7727 106.894 78.3636C106.467 78.9545 105.871 79.4205 105.104 79.7614C104.337 80.1023 103.445 80.2727 102.428 80.2727C101.092 80.2727 99.9874 79.983 99.1124 79.4034C98.2374 78.8239 97.6834 77.9773 97.4504 76.8636L99.3595 76.3864C99.5413 77.0909 99.8851 77.6193 100.391 77.9716C100.902 78.3239 101.57 78.5 102.394 78.5C103.331 78.5 104.075 78.3011 104.627 77.9034C105.183 77.5 105.462 77.017 105.462 76.4545C105.462 76 105.303 75.6193 104.985 75.3125C104.666 75 104.178 74.767 103.519 74.6136L101.337 74.1023C100.138 73.8182 99.2573 73.3778 98.6948 72.7812C98.1379 72.179 97.8595 71.4261 97.8595 70.5227C97.8595 69.7841 98.0669 69.1307 98.4817 68.5625C98.9021 67.9943 99.4732 67.5483 100.195 67.2244C100.922 66.9006 101.746 66.7386 102.666 66.7386C103.962 66.7386 104.979 67.0227 105.717 67.5909C106.462 68.1591 106.99 68.9091 107.303 69.8409ZM119.602 69.8409L117.795 70.3523C117.681 70.0511 117.514 69.7585 117.292 69.4744C117.076 69.1847 116.781 68.946 116.406 68.7585C116.031 68.571 115.551 68.4773 114.965 68.4773C114.164 68.4773 113.497 68.6619 112.963 69.0312C112.434 69.3949 112.17 69.858 112.17 70.4205C112.17 70.9205 112.352 71.3153 112.715 71.6051C113.079 71.8949 113.647 72.1364 114.42 72.3295L116.363 72.8068C117.534 73.0909 118.406 73.5256 118.98 74.1108C119.553 74.6903 119.84 75.4375 119.84 76.3523C119.84 77.1023 119.624 77.7727 119.193 78.3636C118.767 78.9545 118.17 79.4205 117.403 79.7614C116.636 80.1023 115.744 80.2727 114.727 80.2727C113.392 80.2727 112.286 79.983 111.411 79.4034C110.536 78.8239 109.982 77.9773 109.749 76.8636L111.659 76.3864C111.84 77.0909 112.184 77.6193 112.69 77.9716C113.201 78.3239 113.869 78.5 114.693 78.5C115.63 78.5 116.374 78.3011 116.926 77.9034C117.482 77.5 117.761 77.017 117.761 76.4545C117.761 76 117.602 75.6193 117.284 75.3125C116.965 75 116.477 74.767 115.818 74.6136L113.636 74.1023C112.437 73.8182 111.556 73.3778 110.994 72.7812C110.437 72.179 110.159 71.4261 110.159 70.5227C110.159 69.7841 110.366 69.1307 110.781 68.5625C111.201 67.9943 111.772 67.5483 112.494 67.2244C113.221 66.9006 114.045 66.7386 114.965 66.7386C116.261 66.7386 117.278 67.0227 118.017 67.5909C118.761 68.1591 119.289 68.9091 119.602 69.8409ZM125.594 80L121.605 66.9091H123.719L126.549 76.9318H126.685L129.48 66.9091H131.628L134.389 76.8977H134.526L137.355 66.9091H139.469L135.48 80H133.503L130.639 69.9432H130.435L127.571 80H125.594ZM146.761 80.2727C145.579 80.2727 144.542 79.9915 143.65 79.429C142.764 78.8665 142.071 78.0795 141.571 77.0682C141.076 76.0568 140.829 74.875 140.829 73.5227C140.829 72.1591 141.076 70.9687 141.571 69.9517C142.071 68.9347 142.764 68.1449 143.65 67.5824C144.542 67.0199 145.579 66.7386 146.761 66.7386C147.943 66.7386 148.977 67.0199 149.863 67.5824C150.755 68.1449 151.448 68.9347 151.943 69.9517C152.443 70.9687 152.693 72.1591 152.693 73.5227C152.693 74.875 152.443 76.0568 151.943 77.0682C151.448 78.0795 150.755 78.8665 149.863 79.429C148.977 79.9915 147.943 80.2727 146.761 80.2727ZM146.761 78.4659C147.659 78.4659 148.397 78.2358 148.977 77.7756C149.556 77.3153 149.985 76.7102 150.264 75.9602C150.542 75.2102 150.681 74.3977 150.681 73.5227C150.681 72.6477 150.542 71.8324 150.264 71.0767C149.985 70.321 149.556 69.7102 148.977 69.2443C148.397 68.7784 147.659 68.5455 146.761 68.5455C145.863 68.5455 145.125 68.7784 144.545 69.2443C143.966 69.7102 143.537 70.321 143.258 71.0767C142.98 71.8324 142.841 72.6477 142.841 73.5227C142.841 74.3977 142.98 75.2102 143.258 75.9602C143.537 76.7102 143.966 77.3153 144.545 77.7756C145.125 78.2358 145.863 78.4659 146.761 78.4659ZM155.523 80V66.9091H157.466V68.8864H157.603C157.841 68.2386 158.273 67.7131 158.898 67.3097C159.523 66.9062 160.228 66.7045 161.012 66.7045C161.159 66.7045 161.344 66.7074 161.566 66.7131C161.787 66.7187 161.955 66.7273 162.069 66.7386V68.7841C162 68.767 161.844 68.7415 161.6 68.7074C161.361 68.6676 161.108 68.6477 160.841 68.6477C160.205 68.6477 159.637 68.7812 159.137 69.0483C158.642 69.3097 158.25 69.6733 157.961 70.1392C157.677 70.5994 157.534 71.125 157.534 71.7159V80H155.523ZM168.758 80.2727C167.667 80.2727 166.704 79.9972 165.868 79.446C165.033 78.8892 164.38 78.1051 163.908 77.0938C163.437 76.0767 163.201 74.875 163.201 73.4886C163.201 72.1136 163.437 70.9205 163.908 69.9091C164.38 68.8977 165.036 68.1165 165.877 67.5653C166.718 67.0142 167.689 66.7386 168.792 66.7386C169.644 66.7386 170.317 66.8807 170.812 67.1648C171.312 67.4432 171.692 67.7614 171.954 68.1193C172.221 68.4716 172.428 68.7614 172.576 68.9886H172.746V62.5455H174.758V80H172.814V77.9886H172.576C172.428 78.2273 172.218 78.5284 171.945 78.892C171.672 79.25 171.283 79.571 170.777 79.8551C170.272 80.1335 169.598 80.2727 168.758 80.2727ZM169.03 78.4659C169.837 78.4659 170.519 78.2557 171.076 77.8352C171.633 77.4091 172.056 76.821 172.346 76.071C172.635 75.3153 172.78 74.4432 172.78 73.4545C172.78 72.4773 172.638 71.6222 172.354 70.8892C172.07 70.1506 171.65 69.5767 171.093 69.1676C170.536 68.7528 169.848 68.5455 169.03 68.5455C168.178 68.5455 167.468 68.7642 166.9 69.2017C166.337 69.6335 165.914 70.2216 165.63 70.9659C165.351 71.7045 165.212 72.5341 165.212 73.4545C165.212 74.3864 165.354 75.233 165.638 75.9943C165.928 76.75 166.354 77.3523 166.917 77.8011C167.485 78.2443 168.189 78.4659 169.03 78.4659ZM184.991 80V66.9091H186.934V68.8864H187.07C187.309 68.2386 187.741 67.7131 188.366 67.3097C188.991 66.9062 189.695 66.7045 190.479 66.7045C190.627 66.7045 190.812 66.7074 191.033 66.7131C191.255 66.7187 191.422 66.7273 191.536 66.7386V68.7841C191.468 68.767 191.312 68.7415 191.067 68.7074C190.829 68.6676 190.576 68.6477 190.309 68.6477C189.672 68.6477 189.104 68.7812 188.604 69.0483C188.11 69.3097 187.718 69.6733 187.428 70.1392C187.144 70.5994 187.002 71.125 187.002 71.7159V80H184.991ZM198.77 80.2727C197.509 80.2727 196.421 79.9943 195.506 79.4375C194.597 78.875 193.895 78.0909 193.401 77.0852C192.913 76.0739 192.668 74.8977 192.668 73.5568C192.668 72.2159 192.913 71.0341 193.401 70.0114C193.895 68.983 194.583 68.1818 195.464 67.608C196.35 67.0284 197.384 66.7386 198.566 66.7386C199.248 66.7386 199.921 66.8523 200.586 67.0795C201.251 67.3068 201.856 67.6761 202.401 68.1875C202.947 68.6932 203.381 69.3636 203.705 70.1989C204.029 71.0341 204.191 72.0625 204.191 73.2841V74.1364H194.1V72.3977H202.145C202.145 71.6591 201.998 71 201.702 70.4205C201.413 69.8409 200.998 69.3835 200.458 69.0483C199.924 68.7131 199.293 68.5455 198.566 68.5455C197.765 68.5455 197.072 68.7443 196.486 69.142C195.907 69.5341 195.461 70.0455 195.148 70.6761C194.836 71.3068 194.68 71.983 194.68 72.7045V73.8636C194.68 74.8523 194.85 75.6903 195.191 76.3778C195.538 77.0597 196.018 77.5795 196.631 77.9375C197.245 78.2898 197.958 78.4659 198.77 78.4659C199.299 78.4659 199.776 78.392 200.202 78.2443C200.634 78.0909 201.006 77.8636 201.319 77.5625C201.631 77.2557 201.873 76.875 202.043 76.4205L203.986 76.9659C203.782 77.625 203.438 78.2045 202.955 78.7045C202.472 79.1989 201.876 79.5852 201.165 79.8636C200.455 80.1364 199.657 80.2727 198.77 80.2727ZM216.283 69.8409L214.477 70.3523C214.363 70.0511 214.195 69.7585 213.974 69.4744C213.758 69.1847 213.462 68.946 213.087 68.7585C212.712 68.571 212.232 68.4773 211.647 68.4773C210.846 68.4773 210.178 68.6619 209.644 69.0312C209.116 69.3949 208.852 69.858 208.852 70.4205C208.852 70.9205 209.033 71.3153 209.397 71.6051C209.761 71.8949 210.329 72.1364 211.102 72.3295L213.045 72.8068C214.215 73.0909 215.087 73.5256 215.661 74.1108C216.235 74.6903 216.522 75.4375 216.522 76.3523C216.522 77.1023 216.306 77.7727 215.874 78.3636C215.448 78.9545 214.852 79.4205 214.084 79.7614C213.317 80.1023 212.425 80.2727 211.408 80.2727C210.073 80.2727 208.968 79.983 208.093 79.4034C207.218 78.8239 206.664 77.9773 206.431 76.8636L208.34 76.3864C208.522 77.0909 208.866 77.6193 209.371 77.9716C209.883 78.3239 210.55 78.5 211.374 78.5C212.312 78.5 213.056 78.3011 213.607 77.9034C214.164 77.5 214.442 77.017 214.442 76.4545C214.442 76 214.283 75.6193 213.965 75.3125C213.647 75 213.158 74.767 212.499 74.6136L210.317 74.1023C209.119 73.8182 208.238 73.3778 207.675 72.7812C207.119 72.179 206.84 71.4261 206.84 70.5227C206.84 69.7841 207.048 69.1307 207.462 68.5625C207.883 67.9943 208.454 67.5483 209.175 67.2244C209.903 66.9006 210.727 66.7386 211.647 66.7386C212.942 66.7386 213.959 67.0227 214.698 67.5909C215.442 68.1591 215.971 68.9091 216.283 69.8409ZM224.798 80.2727C223.537 80.2727 222.449 79.9943 221.534 79.4375C220.625 78.875 219.923 78.0909 219.429 77.0852C218.94 76.0739 218.696 74.8977 218.696 73.5568C218.696 72.2159 218.94 71.0341 219.429 70.0114C219.923 68.983 220.611 68.1818 221.491 67.608C222.378 67.0284 223.412 66.7386 224.594 66.7386C225.276 66.7386 225.949 66.8523 226.614 67.0795C227.278 67.3068 227.884 67.6761 228.429 68.1875C228.974 68.6932 229.409 69.3636 229.733 70.1989C230.057 71.0341 230.219 72.0625 230.219 73.2841V74.1364H220.128V72.3977H228.173C228.173 71.6591 228.026 71 227.73 70.4205C227.44 69.8409 227.026 69.3835 226.486 69.0483C225.952 68.7131 225.321 68.5455 224.594 68.5455C223.793 68.5455 223.099 68.7443 222.514 69.142C221.935 69.5341 221.489 70.0455 221.176 70.6761C220.864 71.3068 220.707 71.983 220.707 72.7045V73.8636C220.707 74.8523 220.878 75.6903 221.219 76.3778C221.565 77.0597 222.045 77.5795 222.659 77.9375C223.273 78.2898 223.986 78.4659 224.798 78.4659C225.327 78.4659 225.804 78.392 226.23 78.2443C226.662 78.0909 227.034 77.8636 227.347 77.5625C227.659 77.2557 227.901 76.875 228.071 76.4205L230.014 76.9659C229.81 77.625 229.466 78.2045 228.983 78.7045C228.5 79.1989 227.903 79.5852 227.193 79.8636C226.483 80.1364 225.685 80.2727 224.798 80.2727ZM238.732 66.9091V68.6136H231.948V66.9091H238.732ZM233.925 63.7727H235.936V76.25C235.936 76.8182 236.019 77.2443 236.183 77.5284C236.354 77.8068 236.57 77.9943 236.831 78.0909C237.098 78.1818 237.379 78.2273 237.675 78.2273C237.896 78.2273 238.078 78.2159 238.22 78.1932C238.362 78.1648 238.476 78.142 238.561 78.125L238.97 79.9318C238.834 79.983 238.644 80.0341 238.399 80.0852C238.155 80.142 237.845 80.1705 237.47 80.1705C236.902 80.1705 236.345 80.0483 235.8 79.804C235.26 79.5597 234.811 79.1875 234.453 78.6875C234.101 78.1875 233.925 77.5568 233.925 76.7955V63.7727ZM257.3 69.8409L255.493 70.3523C255.379 70.0511 255.212 69.7585 254.99 69.4744C254.774 69.1847 254.479 68.946 254.104 68.7585C253.729 68.571 253.249 68.4773 252.664 68.4773C251.862 68.4773 251.195 68.6619 250.661 69.0312C250.132 69.3949 249.868 69.858 249.868 70.4205C249.868 70.9205 250.05 71.3153 250.414 71.6051C250.777 71.8949 251.345 72.1364 252.118 72.3295L254.061 72.8068C255.232 73.0909 256.104 73.5256 256.678 74.1108C257.252 74.6903 257.539 75.4375 257.539 76.3523C257.539 77.1023 257.323 77.7727 256.891 78.3636C256.465 78.9545 255.868 79.4205 255.101 79.7614C254.334 80.1023 253.442 80.2727 252.425 80.2727C251.09 80.2727 249.985 79.983 249.11 79.4034C248.235 78.8239 247.681 77.9773 247.448 76.8636L249.357 76.3864C249.539 77.0909 249.882 77.6193 250.388 77.9716C250.899 78.3239 251.567 78.5 252.391 78.5C253.328 78.5 254.073 78.3011 254.624 77.9034C255.181 77.5 255.459 77.017 255.459 76.4545C255.459 76 255.3 75.6193 254.982 75.3125C254.664 75 254.175 74.767 253.516 74.6136L251.334 74.1023C250.135 73.8182 249.254 73.3778 248.692 72.7812C248.135 72.179 247.857 71.4261 247.857 70.5227C247.857 69.7841 248.064 69.1307 248.479 68.5625C248.899 67.9943 249.47 67.5483 250.192 67.2244C250.919 66.9006 251.743 66.7386 252.664 66.7386C253.959 66.7386 254.976 67.0227 255.715 67.5909C256.459 68.1591 256.987 68.9091 257.3 69.8409ZM268.576 74.6477V66.9091H270.588V80H268.576V77.7841H268.44C268.133 78.4489 267.656 79.0142 267.008 79.4801C266.36 79.9403 265.542 80.1705 264.554 80.1705C263.735 80.1705 263.008 79.9915 262.372 79.6335C261.735 79.2699 261.235 78.7244 260.872 77.9972C260.508 77.2642 260.326 76.3409 260.326 75.2273V66.9091H262.338V75.0909C262.338 76.0455 262.605 76.8068 263.139 77.375C263.679 77.9432 264.366 78.2273 265.201 78.2273C265.701 78.2273 266.21 78.0994 266.727 77.8438C267.25 77.5881 267.687 77.196 268.039 76.6676C268.397 76.1392 268.576 75.4659 268.576 74.6477ZM279.35 80.2727C278.122 80.2727 277.066 79.983 276.179 79.4034C275.293 78.8239 274.611 78.0256 274.134 77.0085C273.657 75.9915 273.418 74.8295 273.418 73.5227C273.418 72.1932 273.662 71.0199 274.151 70.0028C274.645 68.9801 275.333 68.1818 276.213 67.608C277.1 67.0284 278.134 66.7386 279.316 66.7386C280.236 66.7386 281.066 66.9091 281.804 67.25C282.543 67.5909 283.148 68.0682 283.62 68.6818C284.091 69.2955 284.384 70.0114 284.497 70.8295H282.486C282.333 70.233 281.992 69.7045 281.463 69.2443C280.941 68.7784 280.236 68.5455 279.35 68.5455C278.566 68.5455 277.878 68.75 277.287 69.1591C276.702 69.5625 276.245 70.1335 275.915 70.8722C275.591 71.6051 275.429 72.4659 275.429 73.4545C275.429 74.4659 275.588 75.3466 275.907 76.0966C276.23 76.8466 276.685 77.429 277.27 77.8438C277.861 78.2585 278.554 78.4659 279.35 78.4659C279.872 78.4659 280.347 78.375 280.773 78.1932C281.199 78.0114 281.56 77.75 281.855 77.4091C282.151 77.0682 282.361 76.6591 282.486 76.1818H284.497C284.384 76.9545 284.103 77.6506 283.654 78.2699C283.211 78.8835 282.622 79.3722 281.889 79.7358C281.162 80.0938 280.316 80.2727 279.35 80.2727ZM292.516 80.2727C291.289 80.2727 290.232 79.983 289.346 79.4034C288.459 78.8239 287.777 78.0256 287.3 77.0085C286.823 75.9915 286.584 74.8295 286.584 73.5227C286.584 72.1932 286.828 71.0199 287.317 70.0028C287.811 68.9801 288.499 68.1818 289.38 67.608C290.266 67.0284 291.3 66.7386 292.482 66.7386C293.402 66.7386 294.232 66.9091 294.971 67.25C295.709 67.5909 296.314 68.0682 296.786 68.6818C297.257 69.2955 297.55 70.0114 297.664 70.8295H295.652C295.499 70.233 295.158 69.7045 294.63 69.2443C294.107 68.7784 293.402 68.5455 292.516 68.5455C291.732 68.5455 291.044 68.75 290.453 69.1591C289.868 69.5625 289.411 70.1335 289.081 70.8722C288.757 71.6051 288.596 72.4659 288.596 73.4545C288.596 74.4659 288.755 75.3466 289.073 76.0966C289.397 76.8466 289.851 77.429 290.436 77.8438C291.027 78.2585 291.721 78.4659 292.516 78.4659C293.039 78.4659 293.513 78.375 293.939 78.1932C294.365 78.0114 294.726 77.75 295.022 77.4091C295.317 77.0682 295.527 76.6591 295.652 76.1818H297.664C297.55 76.9545 297.269 77.6506 296.82 78.2699C296.377 78.8835 295.789 79.3722 295.056 79.7358C294.328 80.0938 293.482 80.2727 292.516 80.2727ZM305.853 80.2727C304.591 80.2727 303.503 79.9943 302.588 79.4375C301.679 78.875 300.978 78.0909 300.483 77.0852C299.995 76.0739 299.75 74.8977 299.75 73.5568C299.75 72.2159 299.995 71.0341 300.483 70.0114C300.978 68.983 301.665 68.1818 302.546 67.608C303.432 67.0284 304.466 66.7386 305.648 66.7386C306.33 66.7386 307.003 66.8523 307.668 67.0795C308.333 67.3068 308.938 67.6761 309.483 68.1875C310.029 68.6932 310.463 69.3636 310.787 70.1989C311.111 71.0341 311.273 72.0625 311.273 73.2841V74.1364H301.182V72.3977H309.228C309.228 71.6591 309.08 71 308.784 70.4205C308.495 69.8409 308.08 69.3835 307.54 69.0483C307.006 68.7131 306.375 68.5455 305.648 68.5455C304.847 68.5455 304.154 68.7443 303.569 69.142C302.989 69.5341 302.543 70.0455 302.231 70.6761C301.918 71.3068 301.762 71.983 301.762 72.7045V73.8636C301.762 74.8523 301.932 75.6903 302.273 76.3778C302.62 77.0597 303.1 77.5795 303.713 77.9375C304.327 78.2898 305.04 78.4659 305.853 78.4659C306.381 78.4659 306.858 78.392 307.284 78.2443C307.716 78.0909 308.088 77.8636 308.401 77.5625C308.713 77.2557 308.955 76.875 309.125 76.4205L311.069 76.9659C310.864 77.625 310.52 78.2045 310.037 78.7045C309.554 79.1989 308.958 79.5852 308.248 79.8636C307.537 80.1364 306.739 80.2727 305.853 80.2727ZM323.366 69.8409L321.559 70.3523C321.445 70.0511 321.277 69.7585 321.056 69.4744C320.84 69.1847 320.545 68.946 320.17 68.7585C319.795 68.571 319.314 68.4773 318.729 68.4773C317.928 68.4773 317.26 68.6619 316.726 69.0312C316.198 69.3949 315.934 69.858 315.934 70.4205C315.934 70.9205 316.116 71.3153 316.479 71.6051C316.843 71.8949 317.411 72.1364 318.184 72.3295L320.127 72.8068C321.297 73.0909 322.17 73.5256 322.743 74.1108C323.317 74.6903 323.604 75.4375 323.604 76.3523C323.604 77.1023 323.388 77.7727 322.956 78.3636C322.53 78.9545 321.934 79.4205 321.167 79.7614C320.4 80.1023 319.508 80.2727 318.491 80.2727C317.155 80.2727 316.05 79.983 315.175 79.4034C314.3 78.8239 313.746 77.9773 313.513 76.8636L315.422 76.3864C315.604 77.0909 315.948 77.6193 316.454 77.9716C316.965 78.3239 317.633 78.5 318.456 78.5C319.394 78.5 320.138 78.3011 320.689 77.9034C321.246 77.5 321.525 77.017 321.525 76.4545C321.525 76 321.366 75.6193 321.047 75.3125C320.729 75 320.241 74.767 319.581 74.6136L317.4 74.1023C316.201 73.8182 315.32 73.3778 314.758 72.7812C314.201 72.179 313.922 71.4261 313.922 70.5227C313.922 69.7841 314.13 69.1307 314.545 68.5625C314.965 67.9943 315.536 67.5483 316.258 67.2244C316.985 66.9006 317.809 66.7386 318.729 66.7386C320.025 66.7386 321.042 67.0227 321.78 67.5909C322.525 68.1591 323.053 68.9091 323.366 69.8409ZM332.221 66.9091V68.6136H325.165V66.9091H332.221ZM327.278 80V65.1023C327.278 64.3523 327.454 63.7273 327.807 63.2273C328.159 62.7273 328.616 62.3523 329.179 62.1023C329.741 61.8523 330.335 61.7273 330.96 61.7273C331.454 61.7273 331.858 61.767 332.17 61.8466C332.483 61.9261 332.716 62 332.869 62.0682L332.29 63.8068C332.187 63.7727 332.045 63.7301 331.863 63.679C331.687 63.6278 331.454 63.6023 331.165 63.6023C330.5 63.6023 330.02 63.7699 329.724 64.1051C329.434 64.4403 329.29 64.9318 329.29 65.5795V80H327.278ZM343.05 74.6477V66.9091H345.062V80H343.05V77.7841H342.914C342.607 78.4489 342.13 79.0142 341.482 79.4801C340.834 79.9403 340.016 80.1705 339.028 80.1705C338.209 80.1705 337.482 79.9915 336.846 79.6335C336.209 79.2699 335.709 78.7244 335.346 77.9972C334.982 77.2642 334.8 76.3409 334.8 75.2273V66.9091H336.812V75.0909C336.812 76.0455 337.079 76.8068 337.613 77.375C338.153 77.9432 338.84 78.2273 339.675 78.2273C340.175 78.2273 340.684 78.0994 341.201 77.8438C341.724 77.5881 342.161 77.196 342.513 76.6676C342.871 76.1392 343.05 75.4659 343.05 74.6477ZM350.517 62.5455V80H348.506V62.5455H350.517ZM355.256 84.9091C354.915 84.9091 354.611 84.8807 354.344 84.8239C354.077 84.7727 353.893 84.7216 353.79 84.6705L354.302 82.8977C354.79 83.0227 355.222 83.0682 355.597 83.0341C355.972 83 356.305 82.8324 356.594 82.5312C356.89 82.2358 357.16 81.7557 357.404 81.0909L357.779 80.0682L352.938 66.9091H355.12L358.734 77.3409H358.87L362.484 66.9091H364.665L359.109 81.9091C358.859 82.5852 358.549 83.1449 358.18 83.5881C357.81 84.0369 357.381 84.3693 356.893 84.5852C356.41 84.8011 355.864 84.9091 355.256 84.9091Z" fill="white"/>
</svg>
