<svg width="430" height="287" viewBox="0 0 430 287" fill="none" xmlns="http://www.w3.org/2000/svg">
<path d="M27.5692 216.995L74.488 216.852L121.407 216.806L215.25 216.708L309.093 216.8L356.012 216.852L402.931 216.995L356.012 217.133L309.093 217.184L215.25 217.282L121.407 217.184L74.488 217.133L27.5692 216.995Z" fill="#263238"/>
<path d="M362.601 100.484C361.964 102.768 361.598 105.118 361.511 107.487C361.393 109.849 361.468 112.216 361.735 114.565C362.016 116.912 362.383 119.249 362.779 121.59C363.175 123.932 363.577 126.274 363.824 128.645C364.142 131.034 364.057 133.459 363.572 135.82C362.918 138.134 361.919 140.336 360.61 142.352C360.001 143.368 359.376 144.373 358.888 145.429C358.313 146.439 358.055 147.599 358.147 148.758C358.197 149.327 358.382 149.876 358.686 150.359C358.991 150.842 359.406 151.246 359.898 151.536C360.409 151.822 361.006 151.916 361.58 151.8C361.868 151.737 362.139 151.612 362.374 151.435C362.61 151.257 362.805 151.032 362.946 150.773C362.814 151.044 362.625 151.284 362.392 151.476C362.159 151.668 361.888 151.808 361.597 151.886C361.001 152.027 360.375 151.951 359.829 151.674C359.288 151.387 358.825 150.973 358.478 150.468C358.131 149.964 357.912 149.383 357.837 148.775C357.705 147.558 357.945 146.329 358.526 145.251C359.025 144.16 359.64 143.138 360.248 142.105C361.396 140.045 362.544 137.961 363.084 135.682C363.54 133.379 363.604 131.015 363.273 128.691C362.814 123.996 361.758 119.34 361.321 114.599C360.885 109.858 361.086 105.002 362.601 100.484Z" fill="#263238"/>
<path d="M376.309 79.7459C375.297 83.6307 373.379 87.2205 370.712 90.2214C367.119 94.4345 363.296 96.8396 363.365 97.2586C363.56 98.4525 364.846 100.197 364.783 100.605C364.72 101.013 363.761 101.472 362.94 101.523C362.119 101.575 361.109 101.242 360.989 100.852C360.868 100.462 361.924 98.5559 361.959 97.3447C361.959 96.4952 345.422 89.7163 345.531 74.1781C345.588 66.2052 350.393 62.6981 354.56 61.1024C356.383 60.4187 358.295 60.003 360.237 59.8683C362.498 59.719 374.92 59.4665 376.665 72.1633C377.021 74.6909 376.901 77.2629 376.309 79.7459Z" fill="#25AE4B"/>
<path opacity="0.1" d="M363.342 97.2586C363.537 98.4525 364.823 100.197 364.76 100.605C364.697 101.013 363.738 101.472 362.917 101.523C362.096 101.575 361.086 101.242 360.966 100.852C360.845 100.461 361.901 98.5558 361.936 97.3447C361.936 96.4951 345.399 89.7162 345.508 74.178C345.565 66.2052 350.37 62.698 354.537 61.1023C350.972 64.5463 346.742 71.2219 350.771 81.3358C354.497 90.669 363.807 92.9019 370.689 90.2213C367.119 94.4345 363.296 96.8395 363.342 97.2586Z" fill="black"/>
<path d="M373.1 66.7505C374.196 68.8169 373.605 71.2793 371.774 72.2551C369.943 73.2309 367.567 72.3412 366.47 70.2748C365.374 68.2084 365.965 65.7459 367.796 64.7701C369.627 63.7943 372.009 64.6841 373.1 66.7505Z" fill="white"/>
<path d="M47.2057 116.258C47.2688 118.634 46.7063 120.97 46.4824 123.318C46.3485 124.489 46.2605 125.664 46.2184 126.842C46.1406 128.013 46.1809 129.188 46.3389 130.35C47.0048 135.005 48.8473 139.425 49.6968 144.126C49.9076 145.306 50.0209 146.502 50.0355 147.702C50.0454 148.909 49.889 150.113 49.5706 151.278C48.8702 153.553 48.001 155.773 46.9703 157.919C46.4907 158.989 46.1066 160.099 45.8223 161.237C45.5402 162.367 45.5402 163.55 45.8223 164.681C45.9562 165.245 46.2046 165.777 46.5521 166.242C46.8997 166.707 47.339 167.096 47.8428 167.384C48.9063 167.919 50.1137 168.098 51.2868 167.895C50.1129 168.154 48.8862 168.019 47.7969 167.51C47.2608 167.226 46.7887 166.835 46.4096 166.361C46.0305 165.887 45.7525 165.341 45.5927 164.755C45.2614 163.585 45.2357 162.35 45.5181 161.168C45.7823 160.002 46.1472 158.861 46.6087 157.758C47.4812 155.554 48.5259 153.419 49.1056 151.157C49.6403 148.881 49.6618 146.514 49.1688 144.229C48.7612 141.933 48.1126 139.637 47.4812 137.341C46.7822 135.074 46.2602 132.755 45.9199 130.407C45.7871 129.218 45.7717 128.018 45.874 126.825C45.9544 125.643 46.0634 124.455 46.2241 123.278C46.5226 120.925 47.1368 118.629 47.2057 116.258Z" fill="#263238"/>
<path d="M60.3733 95.7318C59.3579 99.6102 57.4403 103.194 54.7768 106.19C51.1835 110.398 47.3664 112.803 47.4296 113.222C47.6247 114.416 48.9162 116.166 48.8473 116.568C48.7785 116.97 47.8314 117.435 47.0048 117.486C46.1782 117.538 45.1737 117.211 45.0532 116.815C44.9327 116.419 45.9888 114.519 46.029 113.313C46.029 112.464 29.4921 105.685 29.6011 90.1468C29.6528 82.1682 34.4572 78.6381 38.6244 77.0711C40.4504 76.3911 42.3637 75.9736 44.307 75.8312C46.5686 75.6877 58.9899 75.4352 60.7291 88.1263C61.0919 90.6612 60.9711 93.2419 60.3733 95.7318Z" fill="#25AE4B"/>
<path opacity="0.1" d="M47.4296 113.245C47.6247 114.438 48.9162 116.189 48.8473 116.591C48.7785 116.993 47.8314 117.458 47.0048 117.509C46.1782 117.561 45.1737 117.234 45.0532 116.838C44.9327 116.442 45.9888 114.542 46.029 113.336C46.029 112.487 29.4921 105.708 29.6011 90.1697C29.6528 82.1911 34.4572 78.661 38.6244 77.094C35.0656 80.538 30.8295 87.2079 34.859 97.3218C38.5842 106.655 47.8945 108.894 54.7768 106.213C51.1835 110.42 47.3664 112.825 47.4296 113.245Z" fill="black"/>
<path d="M57.176 82.7421C58.2724 84.8085 57.6812 87.271 55.8501 88.2468C54.019 89.2226 51.6484 88.3329 50.5463 86.2665C49.4443 84.2001 50.0412 81.7319 51.8723 80.7618C53.7033 79.7917 56.074 80.6757 57.176 82.7421Z" fill="white"/>
<path d="M384.431 131.165C385.159 133.556 385.734 135.99 386.153 138.455C386.591 140.928 386.766 143.441 386.675 145.951C386.584 147.208 386.373 148.454 386.044 149.671L385.114 153.298C384.438 155.688 383.907 158.117 383.524 160.571C383.34 161.777 383.34 163.004 383.524 164.21C383.759 165.41 384.098 166.621 384.408 167.82C385.033 170.237 385.693 172.648 386.193 175.099C386.445 176.327 386.669 177.561 386.824 178.807C386.907 179.429 386.955 180.056 386.968 180.684C386.997 181.321 386.943 181.96 386.807 182.584C386.765 182.743 386.712 182.898 386.646 183.049L386.428 183.473C386.277 183.754 386.102 184.021 385.906 184.271C385.519 184.781 385.023 185.197 384.454 185.488C383.883 185.776 383.24 185.889 382.605 185.815C381.98 185.718 381.404 185.42 380.964 184.966C381.415 185.396 381.996 185.665 382.617 185.729C383.231 185.781 383.846 185.65 384.385 185.35C385.441 184.72 386.211 183.703 386.531 182.515C386.709 181.299 386.686 180.061 386.463 178.853C386.29 177.624 386.038 176.407 385.762 175.196C385.188 172.774 384.557 170.363 383.903 167.958C383.581 166.747 383.237 165.553 382.984 164.313C382.789 163.048 382.789 161.761 382.984 160.496C383.367 158.023 383.9 155.575 384.58 153.166L385.533 149.55C385.864 148.361 386.088 147.145 386.204 145.917C386.344 143.439 386.225 140.953 385.848 138.501C385.513 136.031 385.04 133.582 384.431 131.165Z" fill="#263238"/>
<path d="M399.808 110.782C398.431 114.554 396.181 117.947 393.242 120.684C389.27 124.535 385.206 126.567 385.263 126.998C385.343 128.209 386.457 130.068 386.354 130.442C386.25 130.815 385.257 131.211 384.431 131.182C383.604 131.153 382.634 130.729 382.554 130.327C382.473 129.925 383.702 128.134 383.857 126.934C383.966 126.091 368.118 117.75 369.702 102.31C370.511 94.3772 375.631 91.3178 379.925 90.1525C381.12 89.8323 382.342 89.621 383.575 89.5211C384.282 89.4609 384.991 89.4398 385.699 89.458C387.961 89.5269 400.354 90.4568 400.882 103.234C401.001 105.795 400.637 108.356 399.808 110.782Z" fill="#C7C7C7"/>
<path d="M385.263 126.957C385.343 128.168 386.457 130.028 386.354 130.401C386.25 130.774 385.257 131.171 384.431 131.142C383.604 131.113 382.634 130.688 382.554 130.287C382.473 129.885 383.702 128.094 383.857 126.894C383.966 126.05 368.118 117.71 369.702 102.27C370.511 94.3369 375.631 91.2775 379.925 90.1123C376.05 93.2234 371.206 99.4398 374.259 109.892C377.078 119.541 386.136 122.647 393.242 120.632C389.27 124.506 385.234 126.538 385.263 126.957Z" fill="#A6A6A6"/>
<path d="M397.386 96.7936C398.281 98.9576 397.46 101.351 395.543 102.149C393.626 102.947 391.353 101.833 390.452 99.6751C389.551 97.5169 390.377 95.1175 392.294 94.3197C394.212 93.5218 396.49 94.6354 397.386 96.7936Z" fill="white"/>
<path d="M80.2566 133.576C81.0864 138.196 81.5756 142.872 81.7203 147.564C81.7527 148.741 81.7221 149.92 81.6285 151.094C81.5596 151.668 81.5022 152.276 81.3931 152.862C81.2841 153.447 81.1578 154.01 81.0143 154.584C80.4403 156.88 79.6539 159.09 78.9536 161.317C78.2105 163.526 77.6348 165.789 77.2316 168.084C76.8406 170.374 76.7961 172.71 77.0996 175.013C77.3809 177.309 77.886 179.605 78.3222 181.901C78.5906 183.055 78.6509 184.249 78.5002 185.425C78.3884 186.013 78.1208 186.56 77.7253 187.009C77.3245 187.443 76.8552 187.807 76.3362 188.088C76.8385 187.781 77.2865 187.394 77.6621 186.94C78.0285 186.493 78.2701 185.956 78.3624 185.385C78.4657 184.228 78.3647 183.062 78.0639 181.941C77.5645 179.645 77.025 177.349 76.6863 175.053C76.3189 172.711 76.3306 170.325 76.7208 167.987C77.1228 165.663 77.6985 163.372 78.4428 161.133C79.143 158.889 79.9409 156.691 80.5321 154.44C80.6814 153.866 80.8076 153.292 80.9167 152.718C81.0258 152.144 81.0832 151.57 81.1578 150.996C81.2554 149.848 81.3013 148.7 81.3013 147.512C81.3013 145.182 81.1807 142.84 80.9913 140.509C80.8019 138.179 80.5379 135.9 80.2566 133.576Z" fill="#263238"/>
<path d="M95.8063 114.921C94.4289 118.693 92.1788 122.086 89.2398 124.822C85.2677 128.668 81.2325 130.706 81.2612 131.136C81.3415 132.341 82.4551 134.207 82.3518 134.58C82.2485 134.953 81.2554 135.343 80.4289 135.32C79.6023 135.298 78.6323 134.867 78.5519 134.465C78.4715 134.063 79.6999 132.273 79.8549 131.073C79.9639 130.229 64.1158 121.889 65.6943 106.448C66.5094 98.5156 71.6295 95.4504 75.923 94.291C77.1177 93.968 78.3398 93.7566 79.5736 93.6596C80.2798 93.5993 80.9889 93.5782 81.6974 93.5964C83.959 93.6653 96.3516 94.5952 96.8797 107.372C96.999 109.934 96.6349 112.494 95.8063 114.921Z" fill="#C7C7C7"/>
<path d="M81.2612 131.125C81.3415 132.33 82.4551 134.196 82.3518 134.569C82.2485 134.942 81.2554 135.332 80.4289 135.309C79.6023 135.286 78.6323 134.856 78.5519 134.454C78.4715 134.052 79.6999 132.261 79.8549 131.061C79.9639 130.218 64.1158 121.877 65.6943 106.437C66.5094 98.5042 71.6295 95.439 75.923 94.2795C72.0485 97.3906 67.2039 103.607 70.2576 114.06C73.0759 123.703 82.1337 126.814 89.2398 124.799C85.2677 128.668 81.2325 130.706 81.2612 131.125Z" fill="#A6A6A6"/>
<path d="M93.3841 100.961C94.2796 103.125 93.4587 105.518 91.5416 106.316C89.6244 107.114 87.3514 106.001 86.4502 103.842C85.549 101.684 86.3756 99.2848 88.2927 98.487C90.2099 97.6891 92.4887 98.7969 93.3841 100.961Z" fill="white"/>
<path d="M66.3716 93.4186C67.3173 96.4761 68.0631 99.5918 68.6045 102.746C69.1529 105.921 69.1936 109.162 68.7251 112.349C68.415 113.927 68.0184 115.487 67.5369 117.021C67.0949 118.554 66.6587 120.087 66.2626 121.613C65.424 124.683 64.8479 127.819 64.5406 130.987C64.3951 132.563 64.4047 134.149 64.5693 135.722C64.7415 137.301 65.017 138.868 65.2983 140.441C65.8723 143.58 66.5381 146.72 66.8194 149.923C66.983 151.528 66.983 153.146 66.8194 154.75C66.7293 155.558 66.5581 156.354 66.3085 157.127C66.0379 157.891 65.6796 158.621 65.2409 159.302C64.4307 160.675 63.7283 162.109 63.14 163.59C62.8503 164.33 62.6443 165.1 62.5258 165.886C62.3784 166.671 62.5083 167.482 62.8932 168.182C62.4841 167.491 62.324 166.681 62.4397 165.886C62.5416 165.086 62.7342 164.301 63.0137 163.544C63.5729 162.041 64.2504 160.584 65.04 159.188C65.4524 158.514 65.7875 157.795 66.0387 157.046C66.2687 156.299 66.4225 155.529 66.4979 154.75C66.6299 153.171 66.6011 151.583 66.4118 150.009C66.0617 146.847 65.4073 143.695 64.8161 140.573C64.5234 139 64.2421 137.421 64.0527 135.82C63.8757 134.213 63.8565 132.592 63.9953 130.981C64.3125 127.783 64.9039 124.618 65.7632 121.522C66.165 119.972 66.6127 118.433 67.0605 116.895C67.5082 115.357 68.0075 113.841 68.2888 112.303C68.8016 109.162 68.8152 105.96 68.329 102.815C67.8637 99.6468 67.2101 96.5091 66.3716 93.4186Z" fill="#263238"/>
<path d="M80.2279 73.2482C79.1985 77.1692 77.2484 80.788 74.5395 83.804C70.975 87.9426 67.2325 90.3017 67.2957 90.7207C67.4908 91.9089 68.7766 93.6654 68.7134 94.0672C68.6503 94.469 67.6975 94.9339 66.8709 94.9855C66.0443 95.0372 65.0398 94.7043 64.9193 94.314C64.7988 93.9236 65.8549 92.018 65.8951 90.8068C65.8951 89.9573 49.3582 83.1784 49.4672 67.6402C49.5189 59.6042 54.3979 56.0798 58.5881 54.5243C59.7419 54.1036 60.931 53.7867 62.1411 53.5772C62.8136 53.458 63.4919 53.3737 64.1731 53.3246C66.4347 53.1811 78.856 52.9286 80.5952 65.6255C80.9543 68.1668 80.8297 70.7531 80.2279 73.2482Z" fill="#37474F"/>
<path d="M49.4673 67.6402C49.5189 59.6042 54.3979 56.0798 58.5881 54.5243C54.9949 57.9683 50.5981 64.6439 54.6792 74.8956C58.393 84.2058 67.6631 86.4559 74.5396 83.804C70.9751 87.9426 67.2326 90.3017 67.2957 90.7207C67.4909 91.9089 68.7766 93.6654 68.7135 94.0672C68.6504 94.469 67.6975 94.9339 66.871 94.9855C66.0444 95.0372 65.0399 94.7043 64.9194 94.314C64.7988 93.9237 65.855 92.018 65.8952 90.8068C65.9181 89.9573 49.364 83.1784 49.4673 67.6402Z" fill="#263238"/>
<path d="M75.8655 60.58C76.9618 62.6464 76.3706 65.1089 74.5395 66.0847C72.7085 67.0605 70.3379 66.1708 69.2358 64.1044C68.1337 62.038 68.7307 59.5755 70.5617 58.5997C72.3928 57.6239 74.7634 58.5136 75.8655 60.58Z" fill="white"/>
<path d="M392.851 153.631C390.67 151.49 387.852 148.913 384.517 149.831C381.383 150.698 380.183 154.125 379.621 156.972C378.897 160.651 378.335 164.359 377.749 168.061C377.164 171.764 376.601 175.523 376.068 179.289C375.765 181.401 375.465 183.506 375.166 185.603C375.023 186.659 374.874 187.721 374.73 188.777C374.587 189.833 374.409 190.849 374.351 191.894C374.351 192.227 374.856 192.278 374.925 191.957C375.333 190.195 375.499 188.364 375.758 186.573C376.016 184.782 376.274 182.974 376.538 181.172C377.061 177.596 377.606 174.025 378.14 170.455C378.674 166.885 379.236 163.309 379.81 159.738C380.292 156.713 380.522 152.948 383.202 150.956C383.93 150.455 384.773 150.149 385.652 150.066C386.532 149.984 387.417 150.128 388.225 150.486C389.987 151.157 391.399 152.42 392.782 153.671C392.789 153.675 392.797 153.677 392.806 153.677C392.814 153.677 392.822 153.675 392.829 153.671C392.836 153.667 392.841 153.661 392.845 153.654C392.849 153.647 392.851 153.639 392.851 153.631Z" fill="#263238"/>
<path d="M389.866 151.444C389.866 151.444 385.406 149.843 383.208 153.092C381.01 156.34 383.639 164.617 403.929 169.284C403.336 162.942 401.687 156.743 399.05 150.945C394.699 141.457 386.945 145.05 389.866 151.444Z" fill="#25AE4B"/>
<path d="M402.764 167.935C402.459 167.365 402.118 166.814 401.743 166.288C401.404 165.765 401.06 165.243 400.715 164.726L399.923 163.578C399.923 163.487 399.923 163.389 399.957 163.291L400.026 162.763C400.078 162.384 400.135 162.006 400.187 161.615C400.239 161.225 400.308 160.858 400.382 160.467C400.429 160.061 400.518 159.661 400.646 159.273C400.646 159.216 400.566 159.187 400.554 159.273C400.515 159.502 400.455 159.727 400.377 159.945L400.239 160.456C400.141 160.84 400.049 161.225 399.963 161.604C399.877 161.983 399.814 162.321 399.751 162.683C399.751 162.855 399.699 163.027 399.676 163.2C399.315 162.683 398.941 162.172 398.563 161.673C397.484 160.255 396.347 158.889 395.165 157.557C395.165 157.557 395.165 157.557 395.165 157.517C395.274 155.387 395.222 153.275 395.693 151.203C395.693 151.146 395.618 151.111 395.607 151.169C395.072 153.146 394.817 155.188 394.849 157.236C394.424 156.765 393.999 156.294 393.569 155.829C392.576 154.768 391.571 153.723 390.544 152.695C390.504 152.655 390.435 152.695 390.475 152.759C392.197 154.601 393.81 156.518 395.394 158.499C394.155 158.478 392.915 158.524 391.68 158.636C390.309 158.74 388.937 158.912 387.571 159.101C387.513 159.101 387.53 159.199 387.571 159.193C388.929 158.996 390.297 158.873 391.669 158.826C392.995 158.768 394.309 158.826 395.635 158.826C396.491 159.888 397.357 160.949 398.167 162.029H397.977C397.667 162.029 397.357 162.029 397.047 162.029C396.427 162.029 395.813 162.086 395.199 162.138C393.938 162.242 392.685 162.434 391.451 162.712C391.442 162.715 391.434 162.721 391.429 162.729C391.424 162.736 391.421 162.745 391.421 162.755C391.421 162.764 391.424 162.773 391.429 162.781C391.434 162.789 391.442 162.795 391.451 162.798C392.696 162.66 393.948 162.539 395.199 162.499C395.773 162.499 396.399 162.499 396.996 162.499H397.931C398.103 162.526 398.278 162.51 398.442 162.453C399.016 163.165 399.533 163.871 400.072 164.583C400.503 165.157 400.928 165.731 401.347 166.305C401.766 166.879 402.162 167.539 402.632 168.09C402.642 168.099 402.654 168.105 402.667 168.109C402.68 168.114 402.693 168.115 402.706 168.114C402.72 168.113 402.733 168.109 402.745 168.103C402.757 168.097 402.767 168.089 402.776 168.079C402.784 168.068 402.791 168.057 402.795 168.044C402.799 168.031 402.801 168.018 402.8 168.004C402.799 167.991 402.795 167.978 402.789 167.966C402.783 167.954 402.775 167.944 402.764 167.935Z" fill="#263238"/>
<path d="M391.807 156.053C391.087 155.962 390.362 155.927 389.637 155.95C388.914 155.95 388.185 155.95 387.461 155.996C387.449 155.996 387.438 156.001 387.429 156.009C387.42 156.018 387.416 156.03 387.416 156.042C387.416 156.054 387.42 156.066 387.429 156.074C387.438 156.083 387.449 156.088 387.461 156.088C388.196 156.036 388.931 156.019 389.666 156.03C390.4 156.042 391.089 156.111 391.795 156.094L391.807 156.053Z" fill="#263238"/>
<path d="M398.171 157.689C398.257 157 398.343 156.3 398.492 155.617C398.492 155.611 398.491 155.605 398.489 155.6C398.486 155.594 398.483 155.589 398.479 155.585C398.474 155.58 398.469 155.577 398.464 155.575C398.458 155.572 398.452 155.571 398.446 155.571C398.44 155.571 398.434 155.572 398.429 155.575C398.423 155.577 398.418 155.58 398.414 155.585C398.41 155.589 398.406 155.594 398.404 155.6C398.402 155.605 398.401 155.611 398.401 155.617C398.297 156.3 398.166 156.977 398.063 157.661L397.925 158.688C397.867 159.006 397.84 159.329 397.845 159.652C397.849 159.665 397.857 159.676 397.868 159.684C397.879 159.692 397.892 159.697 397.905 159.697C397.919 159.697 397.932 159.692 397.942 159.684C397.953 159.676 397.961 159.665 397.965 159.652C398.025 159.332 398.06 159.008 398.068 158.682C398.097 158.349 398.137 158.022 398.171 157.689Z" fill="#263238"/>
<path d="M370.414 191.171C370.305 189.891 370.178 188.616 370.046 187.336C369.778 184.811 369.474 182.289 369.134 179.771C368.795 177.257 368.468 174.737 368.066 172.24C367.919 171.07 367.659 169.917 367.291 168.796C367.16 168.319 366.921 167.878 366.592 167.508C366.264 167.138 365.855 166.848 365.397 166.661C363.009 165.834 361.379 168.308 360.438 170.059C360.431 170.07 360.43 170.082 360.433 170.094C360.436 170.106 360.444 170.116 360.455 170.122C360.465 170.128 360.478 170.13 360.49 170.126C360.502 170.123 360.512 170.115 360.518 170.105C361.092 169.278 362.688 166.948 364.501 167.057C365.718 167.131 366.694 167.992 367.28 171.029C368.738 178.6 370.052 193.989 370.201 194.97C370.287 195.504 370.66 195.481 370.666 194.907C370.672 193.679 370.528 192.416 370.414 191.171Z" fill="#263238"/>
<path d="M361.08 169.14C361.08 169.14 363.164 161.776 358.555 165.455C350.875 171.591 350.605 184.931 350.605 184.931C350.605 184.931 364.255 177.004 365.948 171.775C368.508 163.986 361.08 169.14 361.08 169.14Z" fill="#25AE4B"/>
<path d="M363.663 172.774C362.59 172.986 361.505 173.13 360.426 173.285L358.888 173.503C358.543 173.549 358.193 173.583 357.843 173.623C358.859 172.223 359.887 170.828 360.862 169.399C360.897 169.347 360.816 169.29 360.771 169.336C359.957 170.168 359.19 171.046 358.475 171.965C358.274 171.391 358.067 170.817 357.866 170.243C357.665 169.669 357.384 168.928 357.217 168.245C357.217 168.188 357.114 168.216 357.131 168.274C357.315 168.951 357.447 169.64 357.631 170.317C357.814 170.994 358.004 171.614 358.205 172.252C357.705 172.9 357.223 173.566 356.758 174.238C356.523 173.572 356.23 172.929 356.029 172.252C356.025 172.239 356.017 172.229 356.006 172.223C355.994 172.217 355.981 172.216 355.969 172.22C355.957 172.224 355.947 172.232 355.941 172.244C355.935 172.255 355.934 172.268 355.937 172.28C356.184 173.026 356.316 173.801 356.546 174.576C356.23 175.035 355.92 175.495 355.622 175.954C355.048 176.809 354.548 177.676 354.043 178.548C354.004 178.565 353.971 178.595 353.949 178.632C353.927 178.669 353.918 178.712 353.923 178.755C353.056 180.247 352.241 181.763 351.426 183.29C351.426 183.341 351.483 183.381 351.506 183.33C352.321 181.826 353.228 180.356 354.158 178.91C354.302 178.865 354.45 178.836 354.6 178.824L355.076 178.721C355.427 178.646 355.777 178.554 356.127 178.468C356.821 178.296 357.504 178.129 358.21 178.009C358.268 178.009 358.239 177.911 358.21 177.923C357.384 178.078 356.557 178.175 355.719 178.273C355.323 178.319 354.933 178.365 354.571 178.428H354.514C355 177.682 355.497 176.941 356.006 176.206C356.5 175.489 357.011 174.777 357.522 174.071C357.998 174.002 358.463 173.876 358.934 173.79L360.518 173.48C361.574 173.273 362.63 173.032 363.692 172.86C363.75 172.837 363.721 172.774 363.663 172.774Z" fill="#263238"/>
<path d="M355.46 173.486C355.397 173.29 355.339 173.095 355.276 172.912C355.149 172.506 355.043 172.094 354.961 171.678C354.961 171.62 354.864 171.643 354.875 171.678C354.967 172.097 355.059 172.51 355.156 172.923C355.24 173.342 355.359 173.753 355.511 174.151C355.521 174.169 355.536 174.182 355.555 174.19C355.573 174.197 355.594 174.198 355.612 174.191C355.631 174.185 355.647 174.173 355.658 174.156C355.669 174.14 355.674 174.12 355.671 174.1C355.608 173.922 355.528 173.692 355.46 173.486Z" fill="#263238"/>
<path d="M365.064 171.052C364.444 171.149 363.818 171.19 363.187 171.247C362.555 171.304 361.936 171.391 361.316 171.482C361.281 171.482 361.275 171.54 361.316 171.534C361.941 171.494 362.567 171.442 363.193 171.362C363.818 171.281 364.438 171.19 365.07 171.144C365.121 171.144 365.116 171.052 365.064 171.052Z" fill="#263238"/>
<path d="M380.464 181.837C380.217 176.413 379.89 171 379.316 165.593C379.047 162.901 378.742 160.215 378.363 157.557C378.026 154.924 377.506 152.318 376.808 149.757C376.327 147.766 375.444 145.894 374.213 144.258C373.607 143.46 372.806 142.831 371.888 142.429C370.97 142.027 369.965 141.866 368.967 141.962C366.591 142.254 364.679 143.747 363.026 145.371C361.172 147.196 359.473 149.188 357.757 151.14C357.321 151.634 356.89 152.127 356.46 152.627C356.425 152.672 356.488 152.736 356.529 152.69C358.21 150.761 359.973 148.884 361.781 147.093C363.468 145.434 365.225 143.649 367.521 142.937C368.608 142.592 369.771 142.566 370.873 142.863C371.75 143.138 372.542 143.636 373.169 144.309C374.489 145.681 375.224 147.535 375.752 149.326C377.21 154.314 377.732 159.543 378.272 164.692C378.846 169.927 379.196 175.173 379.46 180.425C379.724 185.677 379.93 190.993 380.436 196.262C380.499 196.911 380.585 197.559 380.671 198.208C380.723 198.644 381.4 198.644 381.365 198.208C380.958 192.738 380.705 187.29 380.464 181.837Z" fill="#263238"/>
<path d="M362.768 145.951C362.768 145.951 365.868 140.211 362.194 138.38C358.52 136.549 346.283 150.216 342.678 170.214C342.678 170.214 362.464 161.455 369.185 152.73C375.907 144.005 368.296 142.088 362.768 145.951Z" fill="#25AE4B"/>
<path d="M365.638 150.612C363.417 150.612 361.195 150.445 358.974 150.463C359.387 149.98 359.806 149.504 360.225 149.028C360.842 148.391 361.417 147.716 361.947 147.007C361.947 146.961 361.913 146.898 361.867 146.932C361.264 147.451 360.702 148.015 360.185 148.62C359.611 149.194 359.071 149.808 358.52 150.405C357.671 151.324 356.839 152.259 356.006 153.195C356.006 153.103 356.006 153.011 356.006 152.925C356.006 152.535 356.006 152.144 356.006 151.777C356.006 151.025 356.006 150.273 356.006 149.515C356.006 147.989 356.006 146.45 356.121 144.923C356.121 144.866 356.035 144.866 356.029 144.923C355.926 146.456 355.765 147.983 355.691 149.515C355.656 150.273 355.633 151.025 355.627 151.783C355.627 152.173 355.627 152.563 355.627 152.931C355.627 153.143 355.627 153.367 355.627 153.591C355.501 153.734 355.363 153.878 355.237 154.027C353.463 156.053 351.793 158.148 350.128 160.284C350.128 160.169 350.128 160.048 350.1 159.934C350.1 159.698 350.048 159.463 350.025 159.228C349.968 158.717 349.893 158.206 349.819 157.701C349.744 157.196 349.675 156.748 349.595 156.271C349.514 155.795 349.371 155.192 349.331 154.653C349.331 154.641 349.326 154.629 349.317 154.62C349.309 154.612 349.297 154.607 349.285 154.607C349.273 154.607 349.261 154.612 349.252 154.62C349.244 154.629 349.239 154.641 349.239 154.653C349.333 155.19 349.397 155.732 349.428 156.277C349.474 156.771 349.52 157.259 349.56 157.747C349.6 158.234 349.652 158.728 349.704 159.216L349.773 159.922C349.773 160.037 349.773 160.157 349.813 160.272C349.824 160.372 349.857 160.468 349.91 160.553C349.629 160.921 349.336 161.288 349.067 161.661C347.919 163.142 346.839 164.646 345.737 166.144C345.703 166.19 345.772 166.259 345.806 166.207C346.851 164.847 347.924 163.515 349.009 162.189C349.824 162.224 350.657 162.189 351.472 162.149H354.043C354.055 162.149 354.067 162.144 354.076 162.136C354.084 162.127 354.089 162.115 354.089 162.103C354.089 162.091 354.084 162.079 354.076 162.071C354.067 162.062 354.055 162.057 354.043 162.057C353.182 162.057 352.321 162.086 351.466 162.092C350.611 162.098 349.887 162.057 349.107 162.092C350.06 160.944 351.03 159.796 351.977 158.619L353.039 157.362C353.368 157.408 353.7 157.419 354.032 157.396H355.18C355.909 157.396 356.638 157.396 357.372 157.368C358.882 157.368 360.392 157.293 361.901 157.293C361.913 157.293 361.925 157.288 361.934 157.28C361.942 157.271 361.947 157.259 361.947 157.247C361.947 157.235 361.942 157.223 361.934 157.215C361.925 157.206 361.913 157.201 361.901 157.201C360.386 157.201 358.876 157.115 357.361 157.081C356.632 157.081 355.903 157.035 355.168 157.023H354.02C353.796 157.023 353.573 157.023 353.343 157.023C354.175 156.042 355.002 155.055 355.84 154.073C355.859 154.058 355.875 154.038 355.886 154.016C356.695 153.063 357.504 152.104 358.325 151.146C358.44 151.014 358.555 150.887 358.664 150.755C360.96 150.83 363.256 150.675 365.552 150.721C365.713 150.704 365.707 150.612 365.638 150.612Z" fill="#263238"/>
<path d="M364.489 154.544H363.95C363.94 154.544 363.929 154.548 363.922 154.555C363.914 154.563 363.91 154.573 363.91 154.584C363.91 154.595 363.914 154.605 363.922 154.612C363.929 154.62 363.94 154.624 363.95 154.624H364.489C364.496 154.62 364.502 154.614 364.506 154.607C364.51 154.6 364.512 154.592 364.512 154.584C364.512 154.576 364.51 154.568 364.506 154.561C364.502 154.554 364.496 154.548 364.489 154.544Z" fill="#263238"/>
<path d="M363.342 154.549C362.63 154.549 361.918 154.549 361.207 154.504L360.139 154.475C359.809 154.432 359.476 154.432 359.146 154.475C359.111 154.475 359.146 154.532 359.146 154.538C359.473 154.604 359.806 154.627 360.139 154.607C360.495 154.607 360.851 154.607 361.212 154.607C361.924 154.607 362.636 154.607 363.348 154.607C363.376 154.641 363.376 154.549 363.342 154.549Z" fill="#263238"/>
<path d="M357.097 161.231C355.649 160.99 354.185 160.858 352.717 160.835C352.717 160.835 352.717 160.863 352.717 160.869C354.175 161.007 355.627 161.082 357.074 161.317C357.131 161.328 357.154 161.237 357.097 161.231Z" fill="#263238"/>
<path d="M351.143 154.865C351.143 154.733 351.143 154.607 351.097 154.481C351.063 154.194 351.017 153.907 350.971 153.625C350.885 153.08 350.794 152.54 350.691 152.001C350.691 151.949 350.593 151.961 350.599 152.001C350.668 152.575 350.725 153.12 350.782 153.683L350.851 154.509C350.843 154.774 350.88 155.038 350.96 155.29C350.971 155.307 350.987 155.321 351.006 155.329C351.025 155.338 351.046 155.34 351.066 155.337C351.087 155.334 351.106 155.326 351.121 155.312C351.137 155.299 351.149 155.281 351.155 155.261C351.175 155.13 351.171 154.995 351.143 154.865Z" fill="#263238"/>
<path d="M380.269 138.586C379.557 137.266 378.656 135.527 376.888 135.636C375.43 135.728 374.77 137.215 374.46 138.449C373.496 142.254 373.427 146.272 373.238 150.176C372.842 158.424 372.486 166.678 372.434 174.938C372.434 177.234 372.434 179.53 372.434 181.826C372.434 184.156 372.434 186.504 372.595 188.834C372.595 188.88 372.613 188.924 372.645 188.956C372.678 188.988 372.721 189.007 372.767 189.007C372.813 189.007 372.856 188.988 372.889 188.956C372.921 188.924 372.939 188.88 372.939 188.834C372.939 186.837 372.882 184.816 372.876 182.842C372.87 180.867 372.876 178.944 372.91 176.993C372.972 173.048 373.077 169.102 373.226 165.157C373.375 161.237 373.548 157.316 373.714 153.396C373.794 151.438 373.875 149.481 373.967 147.518C374.058 145.555 374.133 143.724 374.351 141.835C374.472 140.779 374.627 139.717 374.851 138.678C374.961 137.904 375.276 137.172 375.763 136.56C376.101 136.228 376.546 136.027 377.018 135.994C377.49 135.96 377.959 136.096 378.341 136.377C379.15 136.96 379.783 137.754 380.172 138.673C380.218 138.684 380.292 138.638 380.269 138.586Z" fill="#263238"/>
<path d="M379.787 137.955C379.787 137.955 378.335 132.824 381.549 135.389C386.899 139.66 387.088 148.953 387.088 148.953C387.088 148.953 377.577 143.431 376.395 139.769C374.632 134.362 379.787 137.955 379.787 137.955Z" fill="#25AE4B"/>
<path d="M385.085 145.147C384.999 145.004 384.907 144.866 384.815 144.723C384.827 144.577 384.827 144.431 384.815 144.286V143.626C384.815 143.19 384.844 142.759 384.867 142.323C384.867 142.266 384.775 142.266 384.775 142.323C384.752 142.748 384.735 143.173 384.723 143.597C384.723 143.81 384.723 144.022 384.723 144.235C384.723 144.321 384.723 144.413 384.723 144.51C384.35 143.936 383.966 143.362 383.575 142.788C383.461 142.622 383.34 142.461 383.22 142.3C383.174 141.743 383.174 141.182 383.22 140.624C383.22 140.05 383.22 139.43 383.26 138.839C383.26 138.827 383.255 138.815 383.246 138.807C383.238 138.798 383.226 138.793 383.214 138.793C383.202 138.793 383.19 138.798 383.181 138.807C383.173 138.815 383.168 138.827 383.168 138.839C383.168 139.459 383.122 140.079 383.088 140.699C383.05 141.14 383.039 141.582 383.053 142.025C382.135 140.779 381.159 139.574 380.183 138.374C380.149 138.34 380.08 138.374 380.114 138.431C380.723 139.206 381.308 139.999 381.882 140.802C380.763 140.538 379.626 140.389 378.49 140.228C378.432 140.228 378.409 140.308 378.49 140.314C379.695 140.498 380.878 140.796 382.066 141.06C382.519 141.703 382.967 142.352 383.415 142.995C383.598 143.259 383.776 143.523 383.954 143.793H383.903L383.535 143.747C383.271 143.712 383.007 143.689 382.743 143.672C382.198 143.626 381.647 143.597 381.096 143.569C381.038 143.569 381.038 143.661 381.096 143.661C381.635 143.661 382.175 143.712 382.709 143.775L383.558 143.873L383.931 143.919H384.04L384.953 145.268C385.493 146.06 385.969 146.909 386.543 147.679C386.55 147.685 386.56 147.689 386.569 147.69C386.579 147.691 386.589 147.688 386.597 147.683C386.605 147.678 386.612 147.67 386.616 147.661C386.619 147.652 386.62 147.642 386.618 147.633C386.159 146.773 385.647 145.943 385.085 145.147Z" fill="#263238"/>
<path d="M382.72 139.35V138.747C382.708 138.327 382.726 137.907 382.772 137.49C382.772 137.478 382.767 137.466 382.758 137.458C382.75 137.449 382.738 137.444 382.726 137.444C382.714 137.444 382.702 137.449 382.693 137.458C382.685 137.466 382.68 137.478 382.68 137.49C382.68 137.903 382.634 138.317 382.617 138.736C382.617 138.942 382.617 139.149 382.617 139.356V139.643C382.6 139.741 382.6 139.842 382.617 139.941C382.617 139.952 382.621 139.962 382.629 139.97C382.636 139.977 382.646 139.981 382.657 139.981C382.668 139.981 382.678 139.977 382.685 139.97C382.693 139.962 382.697 139.952 382.697 139.941C382.711 139.85 382.711 139.757 382.697 139.666L382.72 139.35Z" fill="#263238"/>
<path d="M381.543 141.474C381.188 141.416 380.826 141.393 380.47 141.365C380.114 141.336 379.684 141.296 379.293 141.25C379.286 141.247 379.279 141.246 379.272 141.247C379.264 141.248 379.257 141.251 379.251 141.255C379.245 141.259 379.24 141.265 379.237 141.272C379.233 141.278 379.231 141.285 379.231 141.293C379.231 141.3 379.233 141.308 379.237 141.314C379.24 141.321 379.245 141.326 379.251 141.331C379.257 141.335 379.264 141.337 379.272 141.338C379.279 141.339 379.286 141.338 379.293 141.336C380.04 141.388 380.791 141.52 381.543 141.548C381.578 141.548 381.584 141.479 381.543 141.474Z" fill="#263238"/>
<path d="M380.487 165.972C378.49 164.474 376.693 162.316 374.001 162.212C371.78 162.121 370.224 163.791 369.334 165.656C368.89 166.647 368.527 167.672 368.25 168.722C367.867 170.13 367.484 171.542 367.102 172.958C366.407 175.742 365.81 178.56 365.322 181.39C365.052 182.968 364.8 184.552 364.599 186.142C364.347 187.754 364.192 189.38 364.134 191.01C364.138 191.069 364.162 191.125 364.203 191.168C364.244 191.211 364.298 191.238 364.357 191.245C364.416 191.251 364.475 191.237 364.524 191.205C364.574 191.173 364.61 191.124 364.628 191.067C364.903 189.736 365.012 188.364 365.202 187.021C365.391 185.677 365.603 184.317 365.827 182.974C366.287 180.282 366.815 177.596 367.423 174.938C367.997 172.424 368.571 169.87 369.369 167.419C369.943 165.662 370.884 163.607 372.813 162.976C375.683 162.017 378.318 164.462 380.43 166.047C380.47 166.075 380.562 166.012 380.487 165.972Z" fill="#263238"/>
<path d="M378.415 164.537C378.415 164.537 376.573 159.273 379.242 158.223C383.26 156.679 393.695 168.457 391.646 186.504C391.646 186.504 383.57 182.056 377.6 177.044C371.631 172.033 370.109 165.496 372.733 163.808C375.356 162.12 378.415 164.537 378.415 164.537Z" fill="#25AE4B"/>
<path d="M390.441 182.652C390.162 182.023 389.838 181.415 389.471 180.833C389.126 180.219 388.782 179.599 388.426 178.99C387.731 177.802 387.043 176.614 386.331 175.437C386.216 175.242 386.095 175.058 385.981 174.863C385.981 174.794 385.981 174.726 386.021 174.651L386.141 174.129C386.233 173.738 386.296 173.342 386.371 172.952C386.514 172.177 386.652 171.396 386.859 170.656C386.859 170.598 386.784 170.581 386.767 170.656C386.606 171.425 386.359 172.188 386.136 172.952C386.021 173.325 385.9 173.698 385.803 174.071L385.699 174.462C384.844 173.049 383.977 171.649 383.025 170.294C383.087 170.109 383.119 169.915 383.122 169.72C383.122 169.456 383.179 169.192 383.214 168.928C383.283 168.354 383.352 167.746 383.438 167.149C383.61 166.001 383.782 164.853 384.069 163.705C384.069 163.647 383.995 163.63 383.977 163.705C383.69 164.853 383.403 166.001 383.162 167.149C383.059 167.723 382.956 168.297 382.881 168.871C382.847 169.152 382.812 169.445 382.783 169.726C382.783 169.812 382.783 169.898 382.749 169.984C382.462 169.577 382.175 169.163 381.871 168.767C380.947 167.551 379.988 166.368 379.001 165.186C378.966 165.14 378.886 165.186 378.926 165.237C380.581 167.353 382.099 169.571 383.472 171.878C383.736 172.298 383.995 172.728 384.253 173.153L383.995 173.118C383.656 173.078 383.317 173.055 382.979 173.021C382.296 172.958 381.618 172.9 380.935 172.849C379.575 172.74 378.209 172.653 376.854 172.51C376.842 172.51 376.83 172.515 376.822 172.523C376.813 172.532 376.808 172.544 376.808 172.556C376.808 172.568 376.813 172.58 376.822 172.588C376.83 172.597 376.842 172.602 376.854 172.602C378.232 172.757 379.598 172.975 380.97 173.176C381.641 173.273 382.318 173.365 382.996 173.451C383.508 173.552 384.029 173.606 384.551 173.612C385.085 174.479 385.625 175.334 386.159 176.218C386.038 176.218 385.912 176.218 385.797 176.218H383.851C382.973 176.218 382.095 176.218 381.222 176.218C381.159 176.218 381.171 176.31 381.222 176.31C382.112 176.31 382.996 176.361 383.886 176.407L385.148 176.488L385.774 176.534C385.963 176.577 386.159 176.577 386.348 176.534L387.714 178.749C388.133 179.432 388.552 180.11 388.988 180.787C389.392 181.506 389.851 182.193 390.36 182.842C390.389 182.739 390.464 182.71 390.441 182.652Z" fill="#263238"/>
<path d="M386.589 168.067C386.508 168.649 386.388 169.224 386.227 169.789C386.078 170.363 385.912 170.937 385.722 171.511C385.719 171.518 385.718 171.526 385.718 171.534C385.718 171.542 385.72 171.55 385.723 171.557C385.727 171.565 385.731 171.571 385.737 171.576C385.743 171.581 385.75 171.585 385.758 171.588C385.765 171.59 385.773 171.591 385.781 171.59C385.789 171.589 385.797 171.587 385.804 171.583C385.811 171.579 385.817 171.573 385.821 171.567C385.826 171.561 385.829 171.553 385.831 171.546C386.009 170.972 386.17 170.398 386.308 169.824C386.445 169.25 386.537 168.676 386.681 168.073C386.692 168.027 386.595 168.01 386.589 168.067Z" fill="#263238"/>
<path d="M380.654 171.592C380.53 171.487 380.374 171.43 380.212 171.431L379.448 171.322C378.978 171.259 378.501 171.207 378.031 171.15C377.043 171.035 376.056 170.943 375.074 170.817C375.062 170.817 375.051 170.821 375.042 170.83C375.033 170.839 375.029 170.85 375.029 170.863C375.029 170.875 375.033 170.886 375.042 170.895C375.051 170.904 375.062 170.908 375.074 170.908C376.004 171.018 376.929 171.161 377.858 171.282C378.312 171.339 378.765 171.408 379.219 171.46L379.879 171.534C380.133 171.532 380.386 171.575 380.625 171.66C380.654 171.683 380.682 171.626 380.654 171.592Z" fill="#263238"/>
<path d="M386.577 179.53C386.112 179.49 385.642 179.473 385.177 179.461H384.471H384.132C383.985 179.475 383.837 179.475 383.69 179.461C383.627 179.461 383.621 179.559 383.69 179.553C383.827 179.536 383.966 179.536 384.103 179.553H384.465L385.171 179.593C385.636 179.622 386.107 179.65 386.572 179.65C386.58 179.651 386.587 179.65 386.595 179.647C386.602 179.644 386.609 179.64 386.615 179.635C386.621 179.63 386.626 179.623 386.629 179.616C386.632 179.609 386.634 179.601 386.635 179.593C386.635 179.585 386.634 179.577 386.631 179.57C386.629 179.562 386.624 179.555 386.619 179.55C386.614 179.544 386.607 179.539 386.6 179.536C386.593 179.532 386.585 179.53 386.577 179.53Z" fill="#263238"/>
<path d="M389.424 177.509L389.579 176.717C389.67 176.195 389.768 175.678 389.859 175.156C389.862 175.149 389.863 175.142 389.862 175.134C389.861 175.127 389.858 175.12 389.854 175.114C389.85 175.108 389.844 175.103 389.837 175.099C389.831 175.096 389.824 175.094 389.816 175.094C389.809 175.094 389.802 175.096 389.795 175.099C389.788 175.103 389.783 175.108 389.779 175.114C389.774 175.12 389.772 175.127 389.771 175.134C389.77 175.142 389.771 175.149 389.773 175.156L389.43 176.677C389.372 176.93 389.315 177.182 389.264 177.441C389.264 177.555 389.218 177.67 389.189 177.791C389.153 177.911 389.139 178.038 389.149 178.164C389.15 178.175 389.155 178.186 389.162 178.195C389.17 178.204 389.18 178.211 389.191 178.214C389.202 178.217 389.214 178.216 389.225 178.213C389.236 178.209 389.245 178.202 389.252 178.192C389.352 177.978 389.41 177.746 389.424 177.509Z" fill="#263238"/>
<path d="M362.068 188.995L362.63 195.39L364.542 216.995H381.457L383.845 195.39L384.551 188.995H362.068Z" fill="#37474F"/>
<path d="M362.068 188.995L362.63 195.39H383.845L384.551 188.995H362.068Z" fill="#263238"/>
<path d="M360.392 192.439H386.227V187.25H360.392V192.439Z" fill="#37474F"/>
<path d="M159.216 111.976C159.255 112.242 159.214 112.513 159.098 112.755C158.982 112.997 158.796 113.2 158.565 113.336C158.334 113.473 158.068 113.538 157.8 113.523C157.532 113.508 157.274 113.414 157.06 113.252C156.845 113.09 156.684 112.868 156.596 112.615C156.508 112.361 156.497 112.087 156.565 111.827C156.633 111.567 156.777 111.334 156.978 111.156C157.18 110.978 157.429 110.864 157.695 110.828C158.049 110.779 158.408 110.872 158.693 111.087C158.978 111.303 159.166 111.622 159.216 111.976Z" fill="#25AE4B"/>
<path d="M181.734 60.3504C181.773 60.6161 181.732 60.8873 181.616 61.1296C181.5 61.3718 181.315 61.5741 181.083 61.7109C180.852 61.8476 180.586 61.9125 180.318 61.8975C180.05 61.8824 179.792 61.788 179.578 61.6262C179.363 61.4644 179.202 61.2426 179.114 60.9889C179.026 60.7352 179.015 60.4611 179.083 60.2014C179.151 59.9416 179.295 59.708 179.496 59.5301C179.698 59.3522 179.947 59.2382 180.213 59.2024C180.567 59.1548 180.925 59.2487 181.21 59.4637C181.495 59.6786 181.683 59.9973 181.734 60.3504Z" fill="#25AE4B"/>
<path d="M132.261 128.932C132.281 129.065 132.26 129.201 132.202 129.322C132.144 129.443 132.051 129.544 131.935 129.613C131.82 129.681 131.686 129.714 131.552 129.706C131.418 129.698 131.289 129.651 131.182 129.57C131.075 129.488 130.994 129.377 130.95 129.25C130.907 129.123 130.902 128.986 130.936 128.856C130.971 128.726 131.043 128.609 131.144 128.521C131.245 128.432 131.37 128.375 131.503 128.358C131.68 128.335 131.858 128.382 132 128.49C132.142 128.597 132.235 128.756 132.261 128.932Z" fill="#25AE4B"/>
<path d="M345.864 70.7628C345.883 70.8958 345.862 71.0315 345.804 71.1528C345.746 71.274 345.654 71.3752 345.538 71.4436C345.422 71.512 345.289 71.5443 345.155 71.5366C345.02 71.5289 344.892 71.4815 344.784 71.4003C344.677 71.3192 344.597 71.208 344.553 71.0809C344.509 70.9538 344.504 70.8166 344.539 70.6867C344.573 70.5568 344.646 70.4401 344.747 70.3514C344.848 70.2627 344.973 70.2061 345.106 70.1888C345.282 70.1658 345.461 70.2131 345.602 70.3205C345.744 70.4279 345.838 70.5868 345.864 70.7628Z" fill="#37474F"/>
<path d="M148.046 164.681C148.065 164.814 148.045 164.949 147.987 165.071C147.929 165.192 147.836 165.293 147.72 165.362C147.605 165.43 147.471 165.462 147.337 165.455C147.203 165.447 147.074 165.399 146.967 165.318C146.86 165.237 146.779 165.126 146.735 164.999C146.692 164.872 146.687 164.735 146.721 164.605C146.756 164.475 146.828 164.358 146.929 164.269C147.03 164.181 147.155 164.124 147.288 164.107C147.464 164.085 147.642 164.133 147.783 164.24C147.925 164.347 148.019 164.505 148.046 164.681Z" fill="#37474F"/>
<path d="M356.236 128.674C356.255 128.807 356.235 128.942 356.177 129.064C356.119 129.185 356.026 129.286 355.91 129.354C355.795 129.423 355.661 129.455 355.527 129.447C355.393 129.44 355.264 129.392 355.157 129.311C355.05 129.23 354.969 129.119 354.925 128.992C354.882 128.865 354.877 128.727 354.911 128.598C354.946 128.468 355.018 128.351 355.119 128.262C355.22 128.174 355.345 128.117 355.478 128.1C355.654 128.078 355.832 128.126 355.973 128.233C356.115 128.34 356.209 128.498 356.236 128.674Z" fill="#37474F"/>
<path d="M252.44 62.8588C252.459 62.9918 252.438 63.1276 252.38 63.2488C252.322 63.3701 252.23 63.4713 252.114 63.5397C251.998 63.608 251.865 63.6404 251.731 63.6327C251.596 63.625 251.467 63.5775 251.36 63.4964C251.253 63.4152 251.173 63.304 251.129 63.1769C251.085 63.0499 251.08 62.9126 251.115 62.7827C251.149 62.6528 251.222 62.5361 251.323 62.4475C251.424 62.3588 251.549 62.3022 251.682 62.2848C251.858 62.2619 252.037 62.3092 252.178 62.4166C252.32 62.524 252.414 62.6829 252.44 62.8588Z" fill="#37474F"/>
<path d="M102.43 131.658C102.45 131.791 102.429 131.927 102.371 132.048C102.313 132.169 102.221 132.27 102.105 132.338C101.99 132.406 101.857 132.439 101.723 132.432C101.589 132.424 101.46 132.377 101.353 132.297C101.246 132.216 101.165 132.106 101.121 131.979C101.076 131.852 101.071 131.715 101.104 131.586C101.138 131.456 101.209 131.339 101.31 131.25C101.41 131.16 101.534 131.103 101.667 131.084C101.844 131.061 102.023 131.109 102.166 131.216C102.308 131.323 102.403 131.482 102.43 131.658Z" fill="#37474F"/>
<path d="M258.243 118.307C258.262 118.44 258.241 118.576 258.183 118.697C258.125 118.818 258.033 118.92 257.917 118.988C257.801 119.056 257.668 119.089 257.533 119.081C257.399 119.073 257.27 119.026 257.163 118.945C257.056 118.864 256.976 118.752 256.932 118.625C256.888 118.498 256.883 118.361 256.918 118.231C256.952 118.101 257.025 117.984 257.126 117.896C257.227 117.807 257.352 117.751 257.485 117.733C257.572 117.721 257.661 117.726 257.747 117.749C257.832 117.771 257.912 117.81 257.983 117.863C258.053 117.916 258.112 117.983 258.157 118.059C258.201 118.135 258.231 118.22 258.243 118.307Z" fill="#37474F"/>
<path d="M193.673 68.3061C193.693 68.4391 193.672 68.5748 193.614 68.6961C193.556 68.8173 193.463 68.9185 193.348 68.9869C193.232 69.0552 193.099 69.0876 192.964 69.0799C192.83 69.0722 192.701 69.0248 192.594 68.9436C192.487 68.8624 192.407 68.7512 192.363 68.6242C192.319 68.4971 192.314 68.3599 192.349 68.23C192.383 68.1001 192.455 67.9833 192.556 67.8947C192.657 67.806 192.783 67.7494 192.916 67.7321C193.092 67.7106 193.269 67.7585 193.411 67.8657C193.552 67.9728 193.646 68.1307 193.673 68.3061Z" fill="#37474F"/>
<path d="M192.985 114.748C193.004 114.881 192.983 115.017 192.925 115.138C192.867 115.26 192.774 115.361 192.659 115.429C192.543 115.498 192.41 115.53 192.275 115.522C192.141 115.515 192.012 115.467 191.905 115.386C191.798 115.305 191.718 115.194 191.674 115.066C191.63 114.939 191.625 114.802 191.66 114.672C191.694 114.542 191.766 114.426 191.867 114.337C191.968 114.248 192.094 114.192 192.227 114.174C192.403 114.151 192.582 114.199 192.723 114.306C192.865 114.414 192.959 114.572 192.985 114.748Z" fill="#37474F"/>
<path d="M337.196 159.469C337.216 159.602 337.195 159.737 337.137 159.859C337.079 159.98 336.986 160.081 336.871 160.15C336.755 160.218 336.622 160.25 336.487 160.243C336.353 160.235 336.224 160.187 336.117 160.106C336.01 160.025 335.929 159.914 335.886 159.787C335.842 159.66 335.837 159.522 335.872 159.393C335.906 159.263 335.978 159.146 336.079 159.057C336.18 158.969 336.305 158.912 336.439 158.895C336.615 158.872 336.793 158.919 336.935 159.026C337.077 159.134 337.171 159.293 337.196 159.469Z" fill="#455A64"/>
<path d="M196.715 80.9341C196.754 81.1998 196.713 81.471 196.597 81.7132C196.481 81.9555 196.296 82.1578 196.065 82.2945C195.834 82.4312 195.567 82.4962 195.299 82.4811C195.031 82.466 194.773 82.3716 194.559 82.2099C194.345 82.0481 194.183 81.8263 194.095 81.5726C194.007 81.3189 193.996 81.0448 194.065 80.785C194.133 80.5253 194.276 80.2916 194.478 80.1138C194.679 79.9359 194.928 79.8218 195.194 79.7861C195.548 79.74 195.905 79.8345 196.19 80.0492C196.474 80.2639 196.663 80.5816 196.715 80.9341Z" fill="#37474F"/>
<path d="M322.869 81.0431C322.908 81.3091 322.867 81.5806 322.751 81.8231C322.635 82.0655 322.449 82.268 322.218 82.4047C321.986 82.5415 321.72 82.6062 321.451 82.5908C321.183 82.5754 320.925 82.4805 320.711 82.3182C320.497 82.1559 320.336 81.9335 320.248 81.6793C320.161 81.4251 320.151 81.1507 320.22 80.8909C320.289 80.6311 320.433 80.3977 320.635 80.2203C320.837 80.043 321.088 79.9298 321.354 79.8951C321.707 79.8476 322.064 79.9417 322.348 80.1568C322.632 80.3718 322.82 80.6904 322.869 81.0431Z" fill="#37474F"/>
<path d="M157.402 153.775L159.32 153.137C159.32 153.137 158.011 152.46 158.011 150.365C158.011 148.27 159.807 147.443 159.033 145.543L156.897 146.117C157.136 146.616 157.268 147.159 157.285 147.711C157.302 148.264 157.203 148.814 156.995 149.326C156.432 150.537 155.916 151.967 157.402 153.775Z" fill="#25AE4B"/>
<path d="M266.411 108.136L268.328 107.499C268.328 107.499 267.019 106.821 267.019 104.726C267.019 102.631 268.816 101.805 268.041 99.9048L265.906 100.479C266.144 100.977 266.277 101.52 266.293 102.073C266.31 102.625 266.211 103.175 266.003 103.687C265.435 104.899 264.924 106.328 266.411 108.136Z" fill="#25AE4B"/>
<path d="M212.191 51.0287L210.296 50.3226C210.296 50.3226 210.87 51.6658 209.562 53.296C208.253 54.9261 206.33 54.444 205.733 56.3956L207.754 57.2967C207.882 56.7587 208.121 56.2535 208.456 55.8135C208.791 55.3736 209.215 55.0087 209.699 54.7424C210.905 54.157 212.202 53.3821 212.191 51.0287Z" fill="#25AE4B"/>
<path d="M244.937 118.428L243.043 117.716C243.043 117.716 243.617 119.065 242.308 120.689C241 122.314 239.077 121.837 238.48 123.789L240.5 124.696C240.628 124.156 240.868 123.65 241.204 123.209C241.54 122.768 241.965 122.402 242.452 122.136C243.651 121.556 244.949 120.77 244.937 118.428Z" fill="#25AE4B"/>
<path d="M355.117 136.107L353.222 135.395C353.222 135.395 353.797 136.744 352.488 138.368C351.179 139.993 349.256 139.516 348.659 141.468L350.68 142.369C350.808 141.831 351.047 141.326 351.382 140.886C351.717 140.446 352.141 140.081 352.626 139.815C353.831 139.235 355.128 138.449 355.117 136.107Z" fill="#455A64"/>
<path d="M178.095 133.811L178.371 131.808C178.371 131.808 177.188 132.68 175.305 131.75C173.423 130.82 173.48 128.846 171.437 128.702L171.006 130.866C171.559 130.873 172.105 130.996 172.608 131.226C173.112 131.456 173.561 131.789 173.928 132.204C174.76 133.248 175.816 134.316 178.095 133.811Z" fill="#37474F"/>
<path d="M254.494 75.8311L254.764 73.8279C254.764 73.8279 253.582 74.7004 251.705 73.7705C249.828 72.8406 249.879 70.866 247.836 70.7225L247.394 72.898C247.947 72.9044 248.493 73.0267 248.997 73.2571C249.5 73.4875 249.949 73.8207 250.316 74.2354C251.159 75.2686 252.216 76.342 254.494 75.8311Z" fill="#455A64"/>
<path d="M251.056 146.1L251.332 144.103C251.332 144.103 250.149 144.975 248.272 144.045C246.395 143.115 246.447 141.141 244.404 140.992L243.967 143.161C244.521 143.168 245.067 143.29 245.57 143.521C246.073 143.751 246.522 144.084 246.889 144.499C247.727 145.538 248.783 146.634 251.056 146.1Z" fill="#37474F"/>
<path d="M339.234 85.6408L339.51 83.6376C339.51 83.6376 338.327 84.51 336.445 83.5802C334.562 82.6503 334.619 80.6815 332.576 80.5322L332.145 82.7019C332.698 82.7069 333.244 82.8281 333.748 83.0575C334.251 83.2869 334.7 83.6194 335.067 84.0336C335.922 85.0783 336.978 86.1689 339.234 85.6408Z" fill="#455A64"/>
<path d="M274.028 157.425L274.412 159.411C274.412 159.411 275.25 158.2 277.328 158.481C279.406 158.763 279.991 160.645 281.972 160.123L281.69 157.936C281.164 158.108 280.608 158.168 280.057 158.111C279.507 158.055 278.974 157.884 278.493 157.609C277.368 156.886 276.014 156.191 274.028 157.425Z" fill="#25AE4B"/>
<path d="M173.032 103.217L176.264 102.304C176.264 102.304 177.797 106.322 174.599 107.47C174.599 107.47 175.69 105.323 173.032 103.217Z" fill="#455A64"/>
<path d="M173.566 111.729L170.794 109.927C170.794 109.927 171.201 107.292 174.599 107.47C174.599 107.47 172.016 109.359 173.566 111.729Z" fill="#455A64"/>
<path d="M146.181 127.428L144.074 126.28C144.074 126.28 142.352 128.88 144.424 130.189C144.401 130.16 143.977 128.473 146.181 127.428Z" fill="#455A64"/>
<path d="M144.459 133.329L146.697 132.496C146.697 132.496 146.829 130.574 144.401 130.16C144.401 130.16 145.922 131.9 144.459 133.329Z" fill="#455A64"/>
<path d="M341.995 132.95L339.866 131.802C339.866 131.802 338.144 134.402 340.216 135.711C340.216 135.705 339.808 134.018 341.995 132.95Z" fill="#25AE4B"/>
<path d="M340.273 138.874L342.512 138.041C342.512 138.041 342.644 136.118 340.216 135.705C340.216 135.705 341.737 137.444 340.273 138.874Z" fill="#25AE4B"/>
<path d="M247.457 171.385C247.419 171.119 247.46 170.848 247.576 170.606C247.692 170.364 247.877 170.161 248.108 170.025C248.339 169.888 248.606 169.823 248.874 169.838C249.142 169.853 249.399 169.947 249.614 170.109C249.828 170.271 249.99 170.493 250.078 170.746C250.166 171 250.176 171.274 250.108 171.534C250.04 171.794 249.896 172.027 249.695 172.205C249.494 172.383 249.244 172.497 248.978 172.533C248.624 172.582 248.265 172.489 247.98 172.274C247.695 172.058 247.507 171.739 247.457 171.385Z" fill="#37474F"/>
<path d="M360.581 97.2931C360.543 97.0274 360.584 96.7561 360.7 96.5139C360.816 96.2717 361.001 96.0694 361.232 95.9326C361.463 95.7959 361.73 95.731 361.998 95.746C362.266 95.7611 362.523 95.8555 362.738 96.0173C362.952 96.179 363.114 96.4009 363.202 96.6545C363.29 96.9082 363.3 97.1824 363.232 97.4421C363.164 97.7019 363.02 97.9355 362.819 98.1134C362.618 98.2912 362.368 98.4053 362.102 98.4411C361.749 98.4886 361.391 98.3947 361.106 98.1798C360.821 97.9648 360.632 97.6462 360.581 97.2931Z" fill="#455A64"/>
<path d="M256.578 95.1176C256.539 94.8518 256.581 94.5806 256.697 94.3384C256.813 94.0961 256.998 93.8938 257.229 93.7571C257.46 93.6204 257.727 93.5554 257.995 93.5705C258.263 93.5856 258.52 93.68 258.735 93.8417C258.949 94.0035 259.11 94.2253 259.198 94.479C259.286 94.7327 259.297 95.0068 259.229 95.2666C259.161 95.5263 259.017 95.76 258.816 95.9378C258.615 96.1157 258.365 96.2298 258.099 96.2656C257.745 96.3131 257.387 96.2192 257.103 96.0043C256.818 95.7893 256.629 95.4707 256.578 95.1176Z" fill="#37474F"/>
<path d="M341.214 109.353L340.956 111.356C340.956 111.356 342.139 110.484 344.021 111.413C345.904 112.343 345.847 114.312 347.89 114.461L348.32 112.292C347.767 112.285 347.221 112.162 346.718 111.932C346.215 111.702 345.766 111.369 345.399 110.954C344.549 109.915 343.493 108.819 341.214 109.353Z" fill="#25AE4B"/>
<path d="M134.746 158.998L131.521 159.911C131.521 159.911 129.982 155.893 133.179 154.745C133.168 154.728 132.095 156.874 134.746 158.998Z" fill="#37474F"/>
<path d="M134.218 150.468L136.991 152.276C136.991 152.276 136.583 154.905 133.179 154.727C133.168 154.727 135.762 152.839 134.218 150.468Z" fill="#37474F"/>
<path d="M277.437 133.96L274.211 134.879C274.211 134.879 272.673 130.861 275.87 129.713C275.87 129.724 274.785 131.854 277.437 133.96Z" fill="#455A64"/>
<path d="M276.909 125.448L279.681 127.25C279.681 127.25 279.274 129.885 275.87 129.707C275.87 129.724 278.453 127.818 276.909 125.448Z" fill="#455A64"/>
<path d="M173.543 178.612L175.673 179.76C175.673 179.76 177.395 177.159 175.323 175.845C175.323 175.856 175.753 177.544 173.543 178.612Z" fill="#37474F"/>
<path d="M175.265 172.694L173.027 173.526C173.027 173.526 172.9 175.443 175.323 175.856C175.323 175.856 173.801 174.117 175.265 172.694Z" fill="#37474F"/>
<path d="M285.278 77.668L287.408 78.816C287.408 78.816 289.13 76.2158 287.057 74.9071C287.08 74.9186 287.511 76.6061 285.278 77.668Z" fill="#25AE4B"/>
<path d="M287.029 71.75L284.784 72.5823C284.784 72.5823 284.658 74.5052 287.08 74.9185C287.08 74.9185 285.559 73.1793 287.029 71.75Z" fill="#25AE4B"/>
<path d="M78.6381 67.2901C78.6575 67.4231 78.6368 67.5589 78.5788 67.6801C78.5208 67.8013 78.4281 67.9026 78.3123 67.9709C78.1966 68.0393 78.0632 68.0717 77.929 68.064C77.7948 68.0563 77.666 68.0088 77.5588 67.9277C77.4517 67.8465 77.3712 67.7353 77.3274 67.6082C77.2837 67.4811 77.2787 67.3439 77.3132 67.214C77.3477 67.0841 77.42 66.9674 77.521 66.8787C77.622 66.7901 77.7471 66.7335 77.8804 66.7161C78.0568 66.6932 78.2351 66.7405 78.3768 66.8479C78.5186 66.9553 78.6124 67.1141 78.6381 67.2901Z" fill="#455A64"/>
<path d="M68.5644 114.226C68.5837 114.359 68.5631 114.495 68.5051 114.616C68.4471 114.737 68.3543 114.838 68.2386 114.907C68.1229 114.975 67.9895 115.008 67.8553 115C67.7211 114.992 67.5922 114.945 67.4851 114.864C67.378 114.782 67.2974 114.671 67.2537 114.544C67.2099 114.417 67.205 114.28 67.2395 114.15C67.2739 114.02 67.3463 113.903 67.4473 113.815C67.5483 113.726 67.6734 113.669 67.8067 113.652C67.983 113.629 68.1614 113.676 68.3031 113.784C68.4449 113.891 68.5387 114.05 68.5644 114.226Z" fill="#37474F"/>
<path d="M73.9599 137.542C73.9985 137.808 73.9572 138.079 73.8413 138.321C73.7254 138.563 73.5401 138.766 73.309 138.902C73.0779 139.039 72.8114 139.104 72.5433 139.089C72.2752 139.074 72.0176 138.98 71.8032 138.818C71.5889 138.656 71.4275 138.434 71.3395 138.18C71.2515 137.927 71.2408 137.653 71.3089 137.393C71.3771 137.133 71.5208 136.9 71.722 136.722C71.9232 136.544 72.1727 136.43 72.4388 136.394C72.7924 136.346 73.1505 136.44 73.4353 136.655C73.7201 136.87 73.9086 137.189 73.9599 137.542Z" fill="#25AE4B"/>
<path d="M80.6528 109.582L82.57 108.945C82.57 108.945 81.2613 108.268 81.2613 106.173C81.2613 104.078 83.0579 103.251 82.283 101.351L80.1477 101.925C80.3867 102.424 80.5188 102.967 80.5356 103.519C80.5524 104.072 80.4535 104.622 80.2453 105.134C79.677 106.345 79.1662 107.774 80.6528 109.582Z" fill="#25AE4B"/>
<path d="M81.3645 142.926L79.4703 142.214C79.4703 142.214 80.0443 143.563 78.7356 145.188C77.4268 146.812 75.5039 146.336 74.907 148.287L76.9275 149.188C77.0558 148.65 77.2959 148.144 77.632 147.704C77.9682 147.264 78.3931 146.9 78.8791 146.634C80.0787 146.06 81.376 145.274 81.3645 142.926Z" fill="#455A64"/>
<path d="M100.565 85.1013L100.84 83.098C100.84 83.098 99.658 83.9705 97.7753 83.0406C95.8926 82.1107 95.95 80.1362 93.9066 79.9927L93.4761 82.1567C94.0294 82.1634 94.5752 82.2859 95.0784 82.5163C95.5816 82.7466 96.031 83.0797 96.3977 83.4941C97.23 84.5388 98.2862 85.6294 100.565 85.1013Z" fill="#25AE4B"/>
<path d="M72.2323 97.7637C72.1937 97.4979 72.235 97.2267 72.3509 96.9845C72.4668 96.7423 72.6521 96.5399 72.8832 96.4032C73.1143 96.2665 73.3808 96.2015 73.6489 96.2166C73.917 96.2317 74.1746 96.3261 74.389 96.4879C74.6033 96.6496 74.7647 96.8714 74.8527 97.1251C74.9407 97.3788 74.9514 97.653 74.8832 97.9127C74.8151 98.1724 74.6714 98.4061 74.4702 98.584C74.269 98.7618 74.0195 98.8759 73.7534 98.9117C73.3998 98.9592 73.0417 98.8653 72.7569 98.6504C72.4721 98.4354 72.2836 98.1168 72.2323 97.7637Z" fill="#455A64"/>
<path d="M112.722 72.6053L114.852 73.7533C114.852 73.7533 116.574 71.1531 114.502 69.8444C114.502 69.8558 114.932 71.5434 112.722 72.6053Z" fill="#37474F"/>
<path d="M114.45 66.6874L112.205 67.5197C112.205 67.5197 112.079 69.4426 114.501 69.8559C114.501 69.8559 112.98 68.1166 114.45 66.6874Z" fill="#37474F"/>
<path d="M287.574 111.689L287.924 114.083C287.924 114.083 291.035 113.899 290.84 111.454C290.829 111.454 289.738 112.808 287.574 111.689Z" fill="#25AE4B"/>
<path d="M293.314 109.508L291.305 108.216C291.305 108.216 289.692 109.267 290.817 111.454C290.829 111.454 291.305 109.192 293.314 109.508Z" fill="#25AE4B"/>
<path d="M260 151.26V136.194H258.637V116.908C258.639 115.345 258.334 113.797 257.738 112.353C257.142 110.908 256.267 109.595 255.163 108.489C254.059 107.383 252.747 106.506 251.304 105.907C249.86 105.308 248.313 105 246.75 105H182.895C181.332 104.999 179.784 105.307 178.339 105.906C176.895 106.504 175.583 107.381 174.478 108.487C173.373 109.593 172.497 110.906 171.901 112.351C171.304 113.796 170.998 115.345 171 116.908V246.663C171 249.817 172.253 252.841 174.483 255.071C176.713 257.301 179.737 258.554 182.891 258.554H246.746C248.307 258.554 249.853 258.246 251.296 257.649C252.738 257.051 254.049 256.175 255.152 255.071C256.256 253.967 257.132 252.656 257.729 251.213C258.326 249.771 258.633 248.224 258.632 246.663V164.109H259.996V155.199H258.632V151.26H260Z" fill="#707070" stroke="#263238" stroke-linejoin="round"/>
<path d="M244.093 106.657H185.545C178.272 106.657 172.377 112.552 172.377 119.825V243.746C172.377 251.019 178.272 256.914 185.545 256.914H244.093C251.365 256.914 257.261 251.019 257.261 243.746V119.825C257.261 112.552 251.365 106.657 244.093 106.657Z" fill="#263238" stroke="#263238" stroke-linejoin="round"/>
<path d="M243.014 107.735H219.439L219.413 107.822C218.719 110.333 217.109 111.963 215.332 111.963H214.322C212.54 111.963 210.935 110.333 210.236 107.822L210.215 107.735H186.627C183.474 107.735 180.449 108.988 178.219 111.218C175.989 113.448 174.736 116.472 174.736 119.626V238.172C174.736 239.733 175.044 241.279 175.642 242.722C176.239 244.164 177.115 245.475 178.219 246.578C179.324 247.682 180.634 248.558 182.077 249.155C183.52 249.752 185.066 250.059 186.627 250.058H243.014C244.575 250.059 246.121 249.752 247.563 249.155C249.006 248.558 250.316 247.682 251.42 246.578C252.524 245.474 253.399 244.164 253.997 242.721C254.594 241.279 254.901 239.733 254.9 238.172V119.626C254.901 118.065 254.594 116.519 253.997 115.076C253.4 113.633 252.524 112.322 251.42 111.218C250.316 110.114 249.006 109.238 247.563 108.64C246.121 108.043 244.575 107.735 243.014 107.735Z" fill="white" stroke="#263238" stroke-linejoin="round"/>
<path d="M243.014 107.735H219.439L219.413 107.822C218.719 110.333 217.109 111.963 215.332 111.963H214.322C212.54 111.963 210.935 110.333 210.236 107.822L210.215 107.735H186.627C183.474 107.735 180.449 108.988 178.219 111.218C175.989 113.448 174.736 116.472 174.736 119.626V120.964H254.9V119.626C254.901 118.065 254.594 116.519 253.997 115.076C253.4 113.633 252.524 112.322 251.42 111.218C250.316 110.114 249.006 109.238 247.563 108.64C246.121 108.043 244.575 107.735 243.014 107.735Z" fill="#25AE4B"/>
<path d="M241.413 174.895C241.413 172.306 244.942 169.26 244.304 166.862C243.639 164.381 239.044 163.522 237.789 161.348C236.533 159.173 238.052 154.742 236.261 152.952C234.471 151.161 230.074 152.706 227.865 151.428C225.656 150.151 224.845 145.578 222.356 144.914C219.957 144.275 216.924 147.804 214.322 147.804C211.72 147.804 208.687 144.275 206.288 144.914C203.808 145.578 202.949 150.173 200.775 151.428C198.6 152.684 194.169 151.165 192.378 152.956C190.588 154.746 192.133 159.143 190.855 161.352C189.578 163.561 185.005 164.372 184.34 166.862C183.689 169.26 187.231 172.306 187.231 174.895C187.231 177.484 183.702 180.53 184.34 182.929C185.005 185.41 189.6 186.268 190.855 188.443C192.111 190.617 190.592 195.048 192.383 196.839C194.173 198.629 198.57 197.085 200.779 198.362C202.988 199.639 203.799 204.212 206.288 204.877C208.687 205.515 211.72 201.986 214.322 201.986C216.924 201.986 219.957 205.515 222.356 204.877C224.837 204.212 225.695 199.617 227.87 198.362C230.044 197.106 234.475 198.625 236.266 196.835C238.056 195.044 236.512 190.648 237.789 188.438C239.066 186.229 243.639 185.418 244.304 182.929C244.955 180.53 241.413 177.484 241.413 174.895Z" fill="#25AE4B"/>
<path d="M213.947 185.751L202.242 173.359C201.973 173.073 201.828 172.692 201.841 172.3C201.853 171.907 202.02 171.536 202.306 171.267C202.592 170.998 202.974 170.854 203.366 170.866C203.758 170.878 204.13 171.045 204.399 171.332L213.589 181.065L225.195 164.238C225.3 164.068 225.439 163.92 225.604 163.805C225.768 163.69 225.954 163.609 226.15 163.568C226.346 163.527 226.549 163.526 226.746 163.566C226.942 163.605 227.129 163.685 227.294 163.798C227.459 163.912 227.599 164.059 227.706 164.228C227.813 164.398 227.884 164.588 227.915 164.786C227.947 164.984 227.937 165.186 227.888 165.381C227.839 165.575 227.75 165.758 227.628 165.917L213.947 185.751Z" fill="white"/>
<path d="M183.754 218.852L183.4 219.21L180.967 221.643L178.171 218.852C177.849 218.528 177.669 218.091 177.669 217.635C177.669 217.179 177.849 216.742 178.171 216.418C178.494 216.097 178.932 215.916 179.387 215.916C179.843 215.916 180.281 216.097 180.604 216.418L180.967 216.776L181.32 216.418C181.644 216.097 182.081 215.916 182.537 215.916C182.993 215.916 183.43 216.097 183.754 216.418C184.075 216.742 184.256 217.179 184.256 217.635C184.256 218.091 184.075 218.528 183.754 218.852Z" stroke="#263238" stroke-linejoin="round"/>
<path d="M190.54 222.454C192.506 222.454 194.1 220.861 194.1 218.895C194.1 216.929 192.506 215.335 190.54 215.335C188.574 215.335 186.981 216.929 186.981 218.895C186.981 220.861 188.574 222.454 190.54 222.454Z" stroke="#263238" stroke-linecap="round" stroke-linejoin="round"/>
<path d="M188.461 219.546C188.549 220.029 188.808 220.463 189.19 220.771C189.571 221.079 190.05 221.24 190.541 221.225C191.035 221.261 191.526 221.108 191.912 220.796C192.298 220.485 192.551 220.038 192.62 219.546H188.461Z" stroke="#263238" stroke-linecap="round" stroke-linejoin="round"/>
<path d="M189.695 218.239C189.695 218.645 189.574 218.972 189.427 218.972C189.28 218.972 189.16 218.645 189.16 218.239C189.16 217.833 189.28 217.501 189.427 217.501C189.574 217.501 189.695 217.829 189.695 218.239Z" fill="#263238"/>
<path d="M191.701 218.239C191.701 218.645 191.58 218.972 191.434 218.972C191.287 218.972 191.166 218.645 191.166 218.239C191.166 217.833 191.287 217.501 191.434 217.501C191.58 217.501 191.701 217.829 191.701 218.239Z" fill="#263238"/>
<path d="M178.244 226.022H202.888" stroke="#263238" stroke-linejoin="round"/>
<path d="M222.662 229.258H231.006" stroke="#263238" stroke-linejoin="round"/>
<path d="M215.759 229.258H220.936" stroke="#263238" stroke-linejoin="round"/>
<path d="M195.049 229.258H213.748" stroke="#263238" stroke-linejoin="round"/>
<path d="M178.244 229.258H192.749" stroke="#263238" stroke-linejoin="round"/>
<path d="M209.719 232.71H225.972" stroke="#263238" stroke-linejoin="round"/>
<path d="M195.338 232.71H207.708" stroke="#263238" stroke-linejoin="round"/>
<path d="M178.244 232.71H193.323" stroke="#263238" stroke-linejoin="round"/>
<path d="M247.402 236.161H249.412" stroke="#263238" stroke-linejoin="round"/>
<path d="M232.443 236.161H245.961" stroke="#263238" stroke-linejoin="round"/>
<path d="M205.982 236.161H228.992" stroke="#263238" stroke-linejoin="round"/>
<path d="M184.121 236.161H203.679" stroke="#263238" stroke-linejoin="round"/>
<path d="M178.244 236.161H181.821" stroke="#263238" stroke-linejoin="round"/>
<path d="M183.202 136.768C185.813 136.768 187.93 134.651 187.93 132.039C187.93 129.428 185.813 127.31 183.202 127.31C180.59 127.31 178.473 129.428 178.473 132.039C178.473 134.651 180.59 136.768 183.202 136.768Z" fill="#595959"/>
<path d="M190.294 132.255H206.634" stroke="#263238" stroke-linejoin="round"/>
<path d="M214.577 109.422C215.194 109.422 215.694 108.922 215.694 108.305C215.694 107.688 215.194 107.188 214.577 107.188C213.96 107.188 213.459 107.688 213.459 108.305C213.459 108.922 213.96 109.422 214.577 109.422Z" fill="#707070"/>
<path d="M181.86 112.585C181.86 113.711 180.596 114.121 180.565 114.979V115.04H181.799V115.42H180.177V115.1C180.177 113.888 181.445 113.655 181.445 112.598C181.445 112.214 181.316 112.011 181.014 112.011C180.712 112.011 180.583 112.231 180.583 112.563V112.896H180.194V112.589C180.194 112.015 180.457 111.636 181.057 111.636C181.657 111.636 181.86 112.011 181.86 112.585Z" fill="white"/>
<path d="M183.913 112.576V112.675C183.931 112.836 183.896 112.997 183.813 113.136C183.731 113.275 183.605 113.383 183.456 113.443C183.606 113.506 183.732 113.615 183.814 113.756C183.897 113.896 183.931 114.059 183.913 114.22V114.492C183.913 115.066 183.646 115.441 183.05 115.441C182.455 115.441 182.187 115.066 182.187 114.492V114.237H182.58V114.518C182.58 114.854 182.718 115.061 183.011 115.061C183.305 115.061 183.443 114.863 183.443 114.483V114.194C183.443 113.823 183.288 113.646 182.973 113.638H182.748V113.262H182.994C183.059 113.263 183.122 113.25 183.181 113.224C183.239 113.197 183.291 113.158 183.332 113.108C183.374 113.059 183.404 113.001 183.42 112.939C183.436 112.877 183.438 112.812 183.426 112.749V112.576C183.426 112.192 183.292 111.994 182.994 111.994C182.697 111.994 182.563 112.201 182.563 112.537V112.766H182.17V112.594C182.17 112.024 182.438 111.653 183.033 111.653C183.628 111.653 183.913 112.007 183.913 112.576Z" fill="white"/>
<path d="M184.72 112.861V113.379H184.319V112.861H184.72ZM184.72 114.902V115.42H184.319V114.923L184.72 114.902Z" fill="white"/>
<path d="M185.566 113.197C185.621 113.099 185.702 113.018 185.8 112.963C185.898 112.908 186.01 112.882 186.123 112.887C186.606 112.887 186.817 113.241 186.817 113.776V114.492C186.817 115.066 186.545 115.441 185.954 115.441C185.363 115.441 185.117 115.066 185.117 114.492V114.242H185.506V114.518C185.506 114.854 185.644 115.061 185.937 115.061C186.23 115.061 186.369 114.854 186.369 114.518V113.81C186.369 113.474 186.226 113.266 185.937 113.266C185.882 113.263 185.827 113.271 185.775 113.289C185.723 113.308 185.675 113.337 185.635 113.374C185.595 113.412 185.562 113.457 185.54 113.508C185.518 113.558 185.506 113.613 185.506 113.668V113.754H185.113L185.217 111.674H186.709V112.05H185.626L185.566 113.197Z" fill="white"/>
<path d="M188.901 112.572V112.641H188.509V112.546C188.509 112.21 188.37 112.011 188.077 112.011C187.784 112.011 187.62 112.214 187.62 112.615V113.478C187.663 113.355 187.746 113.249 187.855 113.177C187.964 113.104 188.093 113.069 188.224 113.077C188.707 113.077 188.918 113.422 188.918 113.966V114.492C188.918 115.066 188.638 115.441 188.056 115.441C187.473 115.441 187.193 115.066 187.193 114.492V112.598C187.193 112.007 187.46 111.636 188.056 111.636C188.651 111.636 188.901 111.998 188.901 112.572ZM187.607 113.974V114.535C187.607 114.872 187.745 115.079 188.038 115.079C188.332 115.079 188.47 114.872 188.47 114.535V113.974C188.47 113.638 188.323 113.435 188.038 113.435C187.754 113.435 187.611 113.629 187.611 113.974H187.607Z" fill="white"/>
<path d="M229.794 112.736H228.737V115.381H229.794V112.736Z" fill="white"/>
<path d="M231.205 112.205H230.148V115.381H231.205V112.205Z" fill="white"/>
<path d="M232.616 111.83H231.559V115.381H232.616V111.83Z" fill="white"/>
<path d="M234.027 111.178H232.969V115.381H234.027V111.178Z" fill="white"/>
<path d="M247.112 115.308H240.77V111.424H247.112V115.308ZM241.115 114.958H246.759V111.783H241.119L241.115 114.958Z" fill="white"/>
<path d="M244.998 112.166H241.65V114.574H244.998V112.166Z" fill="white"/>
<path d="M247.695 112.913H246.897V113.828H247.695V112.913Z" fill="white"/>
<path d="M238.441 114.466C238.398 114.465 238.357 114.453 238.32 114.432C237.026 113.664 236.163 114.375 236.141 114.406C236.119 114.431 236.091 114.451 236.061 114.465C236.03 114.479 235.997 114.486 235.963 114.486C235.929 114.486 235.896 114.478 235.865 114.465C235.835 114.451 235.807 114.43 235.785 114.405C235.763 114.38 235.746 114.35 235.736 114.318C235.727 114.286 235.724 114.252 235.728 114.218C235.732 114.185 235.744 114.153 235.761 114.124C235.779 114.095 235.803 114.071 235.831 114.052C235.874 114.009 236.965 113.077 238.566 114.026C238.619 114.058 238.658 114.11 238.673 114.171C238.689 114.231 238.68 114.296 238.648 114.35C238.626 114.385 238.596 114.414 238.559 114.434C238.523 114.455 238.482 114.466 238.441 114.466Z" fill="white"/>
<path d="M238.915 113.668C238.872 113.669 238.83 113.657 238.794 113.633C236.926 112.525 235.67 113.599 235.657 113.607C235.635 113.629 235.608 113.645 235.578 113.656C235.549 113.666 235.518 113.67 235.487 113.668C235.455 113.666 235.425 113.658 235.397 113.644C235.37 113.63 235.345 113.61 235.325 113.586C235.304 113.563 235.289 113.536 235.278 113.507C235.268 113.477 235.264 113.446 235.266 113.415C235.268 113.384 235.276 113.354 235.29 113.326C235.304 113.299 235.323 113.274 235.347 113.254C235.347 113.254 236.874 111.959 239.036 113.228C239.063 113.243 239.086 113.264 239.105 113.289C239.124 113.314 239.137 113.342 239.145 113.372C239.153 113.402 239.154 113.434 239.149 113.465C239.145 113.495 239.134 113.525 239.118 113.551C239.097 113.587 239.068 113.617 239.032 113.638C238.997 113.658 238.956 113.668 238.915 113.668Z" fill="white"/>
<path d="M239.346 112.766C239.304 112.767 239.262 112.757 239.225 112.736C236.857 111.329 235.286 112.65 235.221 112.71C235.174 112.752 235.112 112.773 235.049 112.769C234.986 112.765 234.927 112.736 234.885 112.689C234.843 112.641 234.822 112.579 234.826 112.516C234.83 112.453 234.859 112.394 234.906 112.352C234.928 112.352 236.796 110.738 239.467 112.326C239.52 112.358 239.559 112.41 239.574 112.471C239.59 112.532 239.581 112.596 239.549 112.65C239.528 112.685 239.499 112.715 239.463 112.735C239.428 112.756 239.387 112.766 239.346 112.766Z" fill="white"/>
<path d="M237.729 114.863C237.729 114.981 237.694 115.096 237.628 115.194C237.563 115.292 237.47 115.368 237.361 115.413C237.252 115.458 237.133 115.47 237.017 115.447C236.902 115.424 236.796 115.367 236.712 115.284C236.629 115.201 236.572 115.095 236.549 114.979C236.526 114.864 236.538 114.744 236.583 114.635C236.628 114.526 236.705 114.433 236.802 114.368C236.9 114.302 237.015 114.268 237.133 114.268C237.291 114.268 237.443 114.33 237.554 114.442C237.666 114.554 237.729 114.705 237.729 114.863Z" fill="white"/>
</svg>
