<svg width="25" height="24" viewBox="0 0 25 24" fill="none" xmlns="http://www.w3.org/2000/svg">
<path fill-rule="evenodd" clip-rule="evenodd" d="M12.2 3C7.22943 3 3.19999 7.02944 3.19999 12C3.19999 16.9706 7.22943 21 12.2 21C17.1706 21 21.2 16.9706 21.2 12C21.2 7.02944 17.1706 3 12.2 3ZM1.19999 12C1.19999 5.92487 6.12486 1 12.2 1C18.2751 1 23.2 5.92487 23.2 12C23.2 18.0751 18.2751 23 12.2 23C6.12486 23 1.19999 18.0751 1.19999 12Z" fill="#484C52"/>
<path fill-rule="evenodd" clip-rule="evenodd" d="M12.2 5C12.7523 5 13.2 5.44772 13.2 6V11.382L16.6472 13.1056C17.1412 13.3526 17.3414 13.9532 17.0944 14.4472C16.8474 14.9412 16.2468 15.1414 15.7528 14.8944L11.7528 12.8944C11.414 12.725 11.2 12.3788 11.2 12V6C11.2 5.44772 11.6477 5 12.2 5Z" fill="#484C52"/>
</svg>
