<svg width="307" height="85" viewBox="0 0 307 85" fill="none" xmlns="http://www.w3.org/2000/svg">
<path d="M32.8575 78.12C32.0042 78.12 31.0708 77.96 30.0575 77.64C29.0442 77.32 28.0575 76.7067 27.0975 75.8C26.1375 74.84 25.3375 73.5067 24.6975 71.8C24.1108 70.04 23.8175 67.7467 23.8175 64.92C23.8175 64.4933 23.8175 64.0933 23.8175 63.72C23.8175 63.2933 23.8442 62.8667 23.8975 62.44L24.8575 48.44C23.8975 47.32 23.4175 46.4133 23.4175 45.72C23.4175 44.4933 24.0042 43.7733 25.1775 43.56L26.2175 27.56C25.1508 26.5467 24.1908 25.4267 23.3375 24.2C22.4842 22.92 22.0575 21.8533 22.0575 21C22.0575 20.1467 22.5642 19.72 23.5775 19.72C24.3242 19.72 25.5508 19.6667 27.2575 19.56C28.9642 19.4 30.8308 19.24 32.8575 19.08C34.8842 18.92 36.8308 18.7867 38.6975 18.68C40.5642 18.52 42.0308 18.44 43.0975 18.44C47.3642 18.44 50.6442 19.3467 52.9375 21.16C55.2308 22.92 56.3775 24.8933 56.3775 27.08C56.3775 27.6133 56.1108 27.88 55.5775 27.88C55.0975 27.88 54.6442 27.88 54.2175 27.88C53.7908 27.8267 53.3642 27.8 52.9375 27.8C50.6442 27.8 48.1908 27.9333 45.5775 28.2C43.0175 28.4667 40.6175 28.7333 38.3775 29L37.3375 41.72C38.7242 41.6133 40.0042 41.56 41.1775 41.56C41.9775 41.56 42.9108 41.8 43.9775 42.28C45.0975 42.7067 46.1642 43.2667 47.1775 43.96C48.1908 44.6533 49.0442 45.4 49.7375 46.2C50.4308 46.9467 50.7775 47.64 50.7775 48.28C50.7775 49.24 50.5375 49.8533 50.0575 50.12C49.5775 50.3867 48.8308 50.52 47.8175 50.52C46.5908 50.52 44.9375 50.68 42.8575 51C40.7775 51.2667 38.6708 51.5333 36.5375 51.8L34.6175 76.92C34.5642 77.4 34.3775 77.72 34.0575 77.88C33.7375 78.04 33.3375 78.12 32.8575 78.12ZM72.3969 78.2C70.6369 78.2 68.9302 77.8533 67.2769 77.16C65.6769 76.52 64.3702 75.4 63.3569 73.8C60.7969 72.5733 58.8235 70.44 57.4369 67.4C56.0502 64.36 55.3569 60.8133 55.3569 56.76C55.3569 53.24 55.8369 49.9067 56.7969 46.76C57.7569 43.56 59.0635 40.7333 60.7169 38.28C62.3702 35.8267 64.2635 33.9067 66.3969 32.52C68.5835 31.08 70.8769 30.36 73.2769 30.36C75.3035 30.36 77.3302 30.7333 79.3569 31.48C81.3835 32.1733 83.1435 33.4533 84.6369 35.32C87.2502 36.6533 89.2502 38.6 90.6369 41.16C92.0769 43.72 92.7969 46.52 92.7969 49.56C92.7969 53.4533 92.3969 57.1333 91.5969 60.6C90.7969 64.0667 89.5702 67.1333 87.9169 69.8C86.2635 72.4133 84.1569 74.4667 81.5969 75.96C79.0369 77.4533 75.9702 78.2 72.3969 78.2ZM70.7969 69.4C72.3969 69.4 73.8102 68.7067 75.0369 67.32C76.2635 65.9333 77.3035 64.1733 78.1569 62.04C79.0102 59.8533 79.6502 57.5067 80.0769 55C80.5569 52.4933 80.7969 50.12 80.7969 47.88C80.7969 45.4267 80.5035 43.3733 79.9169 41.72C79.3835 40.0667 78.5035 39.24 77.2769 39.24C75.6769 39.24 74.2635 39.9333 73.0369 41.32C71.8102 42.7067 70.7702 44.4933 69.9169 46.68C69.0635 48.8133 68.3969 51.1333 67.9169 53.64C67.4902 56.1467 67.2769 58.52 67.2769 60.76C67.2769 63.2133 67.5702 65.2667 68.1569 66.92C68.7435 68.5733 69.6235 69.4 70.7969 69.4ZM115.131 78.2C113.371 78.2 111.665 77.8533 110.011 77.16C108.411 76.52 107.105 75.4 106.091 73.8C103.531 72.5733 101.558 70.44 100.171 67.4C98.7846 64.36 98.0913 60.8133 98.0913 56.76C98.0913 53.24 98.5713 49.9067 99.5313 46.76C100.491 43.56 101.798 40.7333 103.451 38.28C105.105 35.8267 106.998 33.9067 109.131 32.52C111.318 31.08 113.611 30.36 116.011 30.36C118.038 30.36 120.065 30.7333 122.091 31.48C124.118 32.1733 125.878 33.4533 127.371 35.32C129.985 36.6533 131.985 38.6 133.371 41.16C134.811 43.72 135.531 46.52 135.531 49.56C135.531 53.4533 135.131 57.1333 134.331 60.6C133.531 64.0667 132.305 67.1333 130.651 69.8C128.998 72.4133 126.891 74.4667 124.331 75.96C121.771 77.4533 118.705 78.2 115.131 78.2ZM113.531 69.4C115.131 69.4 116.545 68.7067 117.771 67.32C118.998 65.9333 120.038 64.1733 120.891 62.04C121.745 59.8533 122.385 57.5067 122.811 55C123.291 52.4933 123.531 50.12 123.531 47.88C123.531 45.4267 123.238 43.3733 122.651 41.72C122.118 40.0667 121.238 39.24 120.011 39.24C118.411 39.24 116.998 39.9333 115.771 41.32C114.545 42.7067 113.505 44.4933 112.651 46.68C111.798 48.8133 111.131 51.1333 110.651 53.64C110.225 56.1467 110.011 58.52 110.011 60.76C110.011 63.2133 110.305 65.2667 110.891 66.92C111.478 68.5733 112.358 69.4 113.531 69.4ZM156.746 78.12C155.039 78.12 153.226 77.5067 151.306 76.28C149.386 75.0533 147.759 73.24 146.426 70.84C144.452 69.24 142.986 67.3467 142.026 65.16C141.119 62.92 140.666 60.7067 140.666 58.52C140.666 54.84 141.146 51.32 142.106 47.96C143.066 44.5467 144.372 41.5333 146.026 38.92C147.732 36.2533 149.679 34.1467 151.866 32.6C154.106 31.0533 156.479 30.28 158.986 30.28C161.332 30.28 163.732 31.16 166.186 32.92C166.452 30.4133 166.719 27.88 166.986 25.32C167.306 22.7067 167.679 19.9867 168.106 17.16C168.212 16.5733 168.372 16.0933 168.586 15.72C168.852 15.2933 169.386 15.08 170.186 15.08C171.626 15.08 173.092 15.5067 174.586 16.36C176.132 17.16 177.412 18.3067 178.426 19.8C179.439 21.24 179.839 22.9467 179.626 24.92C179.146 29.4533 178.666 34.12 178.186 38.92C177.759 43.72 177.359 48.4133 176.986 53C176.612 57.5867 176.319 61.9067 176.106 65.96C175.892 69.96 175.786 73.48 175.786 76.52C175.786 77.64 175.359 78.2 174.506 78.2C173.332 78.2 171.892 77.8267 170.186 77.08C168.532 76.3333 167.146 75 166.026 73.08C164.372 74.84 162.692 76.12 160.986 76.92C159.332 77.72 157.919 78.12 156.746 78.12ZM152.826 63.72C152.826 66.0133 153.866 67.16 155.946 67.16C157.012 67.16 158.426 66.7867 160.186 66.04C161.946 65.24 163.332 64.0667 164.346 62.52C164.506 58.6267 164.666 54.8667 164.826 51.24C165.039 47.56 165.279 43.88 165.546 40.2C164.586 39.6667 163.626 39.4 162.666 39.4C160.852 39.4 159.199 40.44 157.706 42.52C156.212 44.6 155.012 47.48 154.106 51.16C153.252 54.7867 152.826 58.9733 152.826 63.72ZM198.416 78.2C197.242 78.2 195.829 77.8267 194.176 77.08C192.576 76.3867 191.376 75.1333 190.576 73.32C189.189 72.4667 188.149 71.32 187.456 69.88C186.762 68.3867 186.416 66.6533 186.416 64.68C186.416 63.4 186.442 61.5333 186.496 59.08C186.549 56.6267 186.629 53.8 186.736 50.6C186.896 47.4 187.109 44.04 187.376 40.52C185.936 39.88 184.629 38.9467 183.456 37.72C182.336 36.44 181.776 35.4 181.776 34.6C181.776 33.96 181.882 33.4533 182.096 33.08C182.362 32.7067 182.842 32.4933 183.536 32.44C185.029 32.2267 186.576 32.04 188.176 31.88C188.389 30.1733 188.602 28.52 188.816 26.92C189.029 25.32 189.269 23.7467 189.536 22.2C189.696 21.3467 189.936 20.7867 190.256 20.52C190.576 20.2 191.029 20.04 191.616 20.04C193.216 20.04 194.762 20.44 196.256 21.24C197.802 22.04 199.056 22.9467 200.016 23.96C201.029 24.9733 201.482 25.8 201.376 26.44C201.109 28.04 200.896 29.5333 200.736 30.92C201.482 30.92 202.176 30.92 202.816 30.92C203.616 30.92 204.549 31.16 205.616 31.64C206.736 32.0667 207.802 32.6267 208.816 33.32C209.829 34.0133 210.682 34.76 211.376 35.56C212.069 36.3067 212.416 37 212.416 37.64C212.416 38.6 212.176 39.2133 211.696 39.48C211.216 39.7467 210.469 39.88 209.456 39.88C208.549 39.88 207.162 39.96 205.296 40.12C203.429 40.2267 201.456 40.36 199.376 40.52C198.789 45.0533 198.256 49.56 197.776 54.04C197.349 58.52 197.056 63.0267 196.896 67.56C198.922 66.9733 200.549 66.1733 201.776 65.16C203.002 64.0933 203.989 63.1067 204.736 62.2C205.536 61.24 206.282 60.6267 206.976 60.36C207.296 60.2 207.642 60.12 208.016 60.12C208.976 60.12 209.776 60.6 210.416 61.56C211.109 62.52 211.456 63.72 211.456 65.16C211.456 66.76 210.976 68.3333 210.016 69.88C209.109 71.4267 207.936 72.84 206.496 74.12C205.056 75.3467 203.616 76.3333 202.176 77.08C200.736 77.8267 199.482 78.2 198.416 78.2ZM225.538 77.96C224.044 77.96 222.524 77.5067 220.978 76.6C219.484 75.64 218.071 74.3867 216.738 72.84C215.458 71.24 214.418 69.48 213.618 67.56C212.818 65.64 212.418 63.72 212.418 61.8C212.418 58.0133 212.951 54.2533 214.018 50.52C215.138 46.7867 216.658 43.4 218.578 40.36C220.551 37.32 222.871 34.8933 225.538 33.08C228.204 31.2667 231.084 30.36 234.178 30.36C235.564 30.36 237.084 30.7867 238.738 31.64C240.391 32.44 241.591 33.64 242.338 35.24C244.364 36.2 245.858 37.64 246.818 39.56C247.778 41.48 248.151 43.24 247.938 44.84C247.778 46.12 247.218 47.5867 246.258 49.24C245.298 50.84 244.071 52.4933 242.578 54.2C241.084 55.8533 239.431 57.4 237.618 58.84C235.804 60.2267 233.938 61.3733 232.018 62.28C230.151 63.1333 228.338 63.56 226.578 63.56C225.938 63.56 225.244 63.3467 224.498 62.92C224.658 64.6267 225.138 65.8533 225.938 66.6C226.791 67.2933 227.911 67.64 229.298 67.64C231.324 67.64 233.564 66.92 236.018 65.48C238.471 64.04 241.084 62.12 243.858 59.72C245.084 60.3067 246.018 61.08 246.658 62.04C247.298 62.9467 247.538 64.0933 247.378 65.48C247.164 67.08 246.311 68.6267 244.818 70.12C243.378 71.56 241.538 72.8933 239.298 74.12C237.111 75.2933 234.791 76.2267 232.338 76.92C229.938 77.6133 227.671 77.96 225.538 77.96ZM237.458 39.16C235.378 39.2667 233.484 40.2267 231.778 42.04C230.071 43.8533 228.631 46.0933 227.458 48.76C226.284 51.3733 225.431 53.9867 224.898 56.6C226.658 56.2267 228.311 55.32 229.858 53.88C231.458 52.3867 232.844 50.7067 234.018 48.84C235.244 46.92 236.178 45.08 236.818 43.32C237.458 41.5067 237.671 40.12 237.458 39.16ZM261.748 78.12C260.201 78.12 258.708 77.72 257.268 76.92C255.881 76.12 254.735 75.0267 253.828 73.64C252.975 72.2 252.548 70.5733 252.548 68.76C252.548 66.7867 252.628 64.1733 252.788 60.92C252.948 57.6133 253.135 53.96 253.348 49.96C253.615 45.96 253.908 41.9333 254.228 37.88C254.601 33.7733 254.975 29.9067 255.348 26.28C255.721 22.6 256.095 19.5067 256.468 17C256.575 16.4667 256.708 16.0133 256.868 15.64C257.081 15.2133 257.535 15 258.228 15C259.135 15 260.121 15.2133 261.188 15.64C262.308 16.0667 263.375 16.6533 264.388 17.4C265.455 18.1467 266.281 19 266.868 19.96C267.455 20.92 267.668 21.9333 267.508 23C267.081 25.88 266.655 29.4267 266.228 33.64C265.855 37.8533 265.508 42.3067 265.188 47C266.468 45.4533 267.828 43.6933 269.268 41.72C270.708 39.6933 272.041 37.7467 273.268 35.88C274.548 33.96 275.535 32.3867 276.228 31.16C276.975 29.7733 277.988 29.08 279.268 29.08C280.655 29.08 281.935 29.8267 283.108 31.32C284.335 32.76 284.948 34.5733 284.948 36.76C284.948 37.4 284.868 38.0667 284.708 38.76C284.601 39.4533 284.388 40.1733 284.068 40.92C283.161 43.16 281.881 45.24 280.228 47.16C278.628 49.08 276.415 51.32 273.588 53.88C275.615 58.2 278.201 62.28 281.348 66.12C284.495 69.96 287.855 73.8533 291.428 77.8C291.695 78.0133 291.855 78.2533 291.908 78.52C292.015 78.84 292.068 79.1333 292.068 79.4C292.068 79.7733 291.935 80.12 291.668 80.44C291.401 80.76 291.001 80.92 290.468 80.92C287.855 80.92 285.241 80.3867 282.628 79.32C280.015 78.2533 277.801 76.68 275.988 74.6C274.921 73.4267 273.721 71.9867 272.388 70.28C271.055 68.5733 269.695 66.8133 268.308 65C266.921 63.1333 265.641 61.3733 264.468 59.72C264.308 63.08 264.175 66.28 264.068 69.32C263.961 72.3067 263.908 74.9467 263.908 77.24C263.908 77.8267 263.188 78.12 261.748 78.12Z" fill="white"/>
</svg>
