<svg width="25" height="24" viewBox="0 0 25 24" fill="none" xmlns="http://www.w3.org/2000/svg">
<path fill-rule="evenodd" clip-rule="evenodd" d="M4.86445 15.4645C5.80213 14.5268 7.0739 14 8.39999 14H16.4C17.7261 14 18.9978 14.5268 19.9355 15.4645C20.8732 16.4021 21.4 17.6739 21.4 19V21C21.4 21.5523 20.9523 22 20.4 22C19.8477 22 19.4 21.5523 19.4 21V19C19.4 18.2044 19.0839 17.4413 18.5213 16.8787C17.9587 16.3161 17.1956 16 16.4 16H8.39999C7.60434 16 6.84128 16.3161 6.27867 16.8787C5.71606 17.4413 5.39999 18.2044 5.39999 19V21C5.39999 21.5523 4.95227 22 4.39999 22C3.8477 22 3.39999 21.5523 3.39999 21V19C3.39999 17.6739 3.92677 16.4021 4.86445 15.4645Z" fill="#484C52"/>
<path fill-rule="evenodd" clip-rule="evenodd" d="M12.4 4C10.7431 4 9.39999 5.34315 9.39999 7C9.39999 8.65685 10.7431 10 12.4 10C14.0568 10 15.4 8.65685 15.4 7C15.4 5.34315 14.0568 4 12.4 4ZM7.39999 7C7.39999 4.23858 9.63856 2 12.4 2C15.1614 2 17.4 4.23858 17.4 7C17.4 9.76142 15.1614 12 12.4 12C9.63856 12 7.39999 9.76142 7.39999 7Z" fill="#484C52"/>
</svg>
