<svg width="109" height="109" viewBox="0 0 109 109" fill="none" xmlns="http://www.w3.org/2000/svg">
    <rect width="109" height="109" rx="54" fill="#C82835" fill-opacity="0.1" />
    <path opacity="0.4"
        d="M54.5 80.75C68.9975 80.75 80.75 68.9975 80.75 54.5C80.75 40.0025 68.9975 28.25 54.5 28.25C40.0025 28.25 28.25 40.0025 28.25 54.5C28.25 68.9975 40.0025 80.75 54.5 80.75Z"
        fill="#C82835" />
    <path
        d="M57.2825 54.5L63.32 48.4625C64.0813 47.7013 64.0813 46.4413 63.32 45.68C62.5588 44.9188 61.2988 44.9188 60.5375 45.68L54.5 51.7175L48.4625 45.68C47.7013 44.9188 46.4413 44.9188 45.68 45.68C44.9188 46.4413 44.9188 47.7013 45.68 48.4625L51.7175 54.5L45.68 60.5375C44.9188 61.2988 44.9188 62.5588 45.68 63.32C46.0738 63.7138 46.5725 63.8975 47.0713 63.8975C47.57 63.8975 48.0688 63.7138 48.4625 63.32L54.5 57.2825L60.5375 63.32C60.9313 63.7138 61.43 63.8975 61.9288 63.8975C62.4275 63.8975 62.9263 63.7138 63.32 63.32C64.0813 62.5588 64.0813 61.2988 63.32 60.5375L57.2825 54.5Z"
        fill="#C82835" />
</svg>
